0,0, Header,1,2,384,
1,0, Start_track,,,,
1,0, Time_signature,4,2,24,8
1,0, Tempo,444444,,,
1,0, End_track,,,,
2,0, Start_track,,,,
2,0, Title_t," ""Electric Piano""",,,
2,0, Program_c,0,0,,
2,0, Note_on_c,0,59,50,
2,96, Note_off_c,0,59,0,
2,192, Note_on_c,0,59,50,
2,288, Note_off_c,0,59,0,
2,384, Note_on_c,0,59,50,
2,480, Note_off_c,0,59,0,
2,480, Note_on_c,0,57,50,
2,576, Note_off_c,0,57,0,
2,672, Note_on_c,0,59,50,
2,768, Note_off_c,0,59,0,
2,864, Note_on_c,0,62,50,
2,960, Note_off_c,0,62,0,
2,1056, Note_on_c,0,59,50,
2,1152, Note_off_c,0,59,0,
2,1248, Note_on_c,0,54,50,
2,1344, Note_off_c,0,54,0,
2,1344, Note_on_c,0,57,50,
2,1536, Note_off_c,0,57,0,
2,1536, Note_on_c,0,59,50,
2,1632, Note_off_c,0,59,0,
2,1728, Note_on_c,0,59,50,
2,1824, Note_off_c,0,59,0,
2,1920, Note_on_c,0,59,50,
2,2016, Note_off_c,0,59,0,
2,2016, Note_on_c,0,57,50,
2,2112, Note_off_c,0,57,0,
2,2208, Note_on_c,0,59,50,
2,2304, Note_off_c,0,59,0,
2,2400, Note_on_c,0,65,50,
2,2496, Note_off_c,0,65,0,
2,2592, Note_on_c,0,64,50,
2,2688, Note_off_c,0,64,0,
2,2784, Note_on_c,0,62,50,
2,2880, Note_off_c,0,62,0,
2,2880, Note_on_c,0,57,50,
2,3072, Note_off_c,0,57,0,
2,3072, Note_on_c,0,59,50,
2,3168, Note_off_c,0,59,0,
2,3264, Note_on_c,0,59,50,
2,3360, Note_off_c,0,59,0,
2,3456, Note_on_c,0,59,50,
2,3552, Note_off_c,0,59,0,
2,3552, Note_on_c,0,57,50,
2,3648, Note_off_c,0,57,0,
2,3744, Note_on_c,0,59,50,
2,3840, Note_off_c,0,59,0,
2,3936, Note_on_c,0,62,50,
2,4032, Note_off_c,0,62,0,
2,4128, Note_on_c,0,59,50,
2,4224, Note_off_c,0,59,0,
2,4320, Note_on_c,0,54,50,
2,4416, Note_off_c,0,54,0,
2,4416, Note_on_c,0,57,50,
2,4608, Note_off_c,0,57,0,
2,4608, Note_on_c,0,59,50,
2,4704, Note_off_c,0,59,0,
2,4800, Note_on_c,0,59,50,
2,4896, Note_off_c,0,59,0,
2,4992, Note_on_c,0,59,50,
2,5088, Note_off_c,0,59,0,
2,5088, Note_on_c,0,57,50,
2,5184, Note_off_c,0,57,0,
2,5184, Note_on_c,0,59,50,
2,5280, Note_off_c,0,59,0,
2,5280, Note_on_c,0,62,50,
2,5376, Note_off_c,0,62,0,
2,5472, Note_on_c,0,65,50,
2,5568, Note_off_c,0,65,0,
2,5664, Note_on_c,0,64,50,
2,5760, Note_off_c,0,64,0,
2,5856, Note_on_c,0,62,50,
2,5952, Note_off_c,0,62,0,
2,5952, Note_on_c,0,57,50,
2,6144, Note_off_c,0,57,0,
2,6144, Note_on_c,0,59,50,
2,6240, Note_off_c,0,59,0,
2,6336, Note_on_c,0,59,50,
2,6432, Note_off_c,0,59,0,
2,6528, Note_on_c,0,59,50,
2,6624, Note_off_c,0,59,0,
2,6624, Note_on_c,0,57,50,
2,6720, Note_off_c,0,57,0,
2,6816, Note_on_c,0,59,50,
2,6912, Note_off_c,0,59,0,
2,7008, Note_on_c,0,62,50,
2,7104, Note_off_c,0,62,0,
2,7200, Note_on_c,0,59,50,
2,7296, Note_off_c,0,59,0,
2,7392, Note_on_c,0,54,50,
2,7488, Note_off_c,0,54,0,
2,7488, Note_on_c,0,57,50,
2,7680, Note_off_c,0,57,0,
2,7680, Note_on_c,0,59,50,
2,7776, Note_off_c,0,59,0,
2,7872, Note_on_c,0,59,50,
2,7968, Note_off_c,0,59,0,
2,8064, Note_on_c,0,59,50,
2,8160, Note_off_c,0,59,0,
2,8160, Note_on_c,0,57,50,
2,8256, Note_off_c,0,57,0,
2,8352, Note_on_c,0,59,50,
2,8448, Note_off_c,0,59,0,
2,8544, Note_off_c,0,64,0,
2,8544, Note_on_c,0,64,50,
2,8592, Note_off_c,0,65,0,
2,8592, Note_on_c,0,65,50,
2,8736, Note_on_c,0,64,50,
2,8832, Note_off_c,0,64,0,
2,8928, Note_on_c,0,62,50,
2,9024, Note_off_c,0,62,0,
2,9024, Note_on_c,0,57,50,
2,9216, Note_off_c,0,57,0,
2,9216, Note_on_c,0,59,50,
2,9312, Note_off_c,0,59,0,
2,9408, Note_on_c,0,59,50,
2,9504, Note_off_c,0,59,0,
2,9600, Note_on_c,0,59,50,
2,9696, Note_off_c,0,59,0,
2,9696, Note_on_c,0,57,50,
2,9792, Note_off_c,0,57,0,
2,9888, Note_on_c,0,59,50,
2,9984, Note_off_c,0,59,0,
2,10080, Note_on_c,0,62,50,
2,10176, Note_off_c,0,62,0,
2,10272, Note_on_c,0,59,50,
2,10368, Note_off_c,0,59,0,
2,10464, Note_on_c,0,54,50,
2,10560, Note_off_c,0,54,0,
2,10560, Note_on_c,0,57,50,
2,10752, Note_off_c,0,57,0,
2,10752, Note_on_c,0,59,50,
2,10848, Note_off_c,0,59,0,
2,10944, Note_on_c,0,59,50,
2,11040, Note_off_c,0,59,0,
2,11136, Note_on_c,0,59,50,
2,11232, Note_off_c,0,59,0,
2,11328, Note_on_c,0,57,50,
2,11424, Note_off_c,0,57,0,
2,11424, Note_on_c,0,59,50,
2,11616, Note_off_c,0,59,0,
2,11904, Note_on_c,0,71,50,
2,11904, Note_on_c,0,74,50,
2,11904, Note_on_c,0,78,50,
2,11904, Note_on_c,0,83,50,
2,12096, Note_off_c,0,83,0,
2,12096, Note_off_c,0,78,0,
2,12096, Note_off_c,0,74,0,
2,12096, Note_off_c,0,71,0,
2,12480, Note_on_c,0,71,50,
2,12672, Note_off_c,0,71,0,
2,12768, Note_on_c,0,69,50,
2,12864, Note_off_c,0,69,0,
2,13056, Note_on_c,0,71,50,
2,13248, Note_off_c,0,71,0,
2,14016, Note_on_c,0,71,50,
2,14208, Note_off_c,0,71,0,
2,14208, Note_on_c,0,71,50,
2,14304, Note_off_c,0,71,0,
2,14304, Note_on_c,0,69,50,
2,14400, Note_off_c,0,69,0,
2,14496, Note_on_c,0,71,50,
2,14592, Note_off_c,0,71,0,
2,14688, Note_off_c,0,76,0,
2,14688, Note_on_c,0,76,50,
2,14736, Note_off_c,0,77,0,
2,14736, Note_on_c,0,77,50,
2,15168, Note_on_c,0,69,50,
2,15360, Note_off_c,0,69,0,
2,15552, Note_on_c,0,71,50,
2,15744, Note_off_c,0,71,0,
2,15744, Note_off_c,0,71,0,
2,15744, Note_on_c,0,71,50,
2,15840, Note_off_c,0,71,0,
2,15840, Note_on_c,0,71,50,
2,15936, Note_off_c,0,71,0,
2,15936, Note_on_c,0,71,50,
2,16032, Note_off_c,0,71,0,
2,16032, Note_on_c,0,71,50,
2,16224, Note_on_c,0,71,50,
2,16320, Note_off_c,0,71,0,
2,16416, Note_on_c,0,71,50,
2,16512, Note_off_c,0,71,0,
2,16608, Note_on_c,0,69,50,
2,16704, Note_off_c,0,69,0,
2,16704, Note_on_c,0,71,50,
2,16896, Note_off_c,0,71,0,
2,17088, Note_on_c,0,83,50,
2,17280, Note_off_c,0,83,0,
2,17280, Note_on_c,0,83,50,
2,17376, Note_off_c,0,83,0,
2,17376, Note_on_c,0,83,50,
2,17472, Note_off_c,0,83,0,
2,17568, Note_on_c,0,83,50,
2,17664, Note_off_c,0,83,0,
2,17760, Note_on_c,0,83,50,
2,17856, Note_off_c,0,83,0,
2,17952, Note_on_c,0,83,50,
2,18048, Note_off_c,0,83,0,
2,18048, Note_on_c,0,83,50,
2,18048, Note_on_c,0,71,50,
2,18048, Note_on_c,0,74,50,
2,18048, Note_on_c,0,78,50,
2,18432, Note_off_c,0,74,0,
2,18432, Note_off_c,0,83,0,
2,18432, Note_off_c,0,71,0,
2,18432, Note_off_c,0,78,0,
2,18624, Note_on_c,0,83,50,
2,18624, Note_on_c,0,78,50,
2,18624, Note_on_c,0,74,50,
2,18624, Note_on_c,0,71,50,
2,18816, Note_off_c,0,78,0,
2,18816, Note_off_c,0,83,0,
2,18816, Note_off_c,0,74,0,
2,18816, Note_off_c,0,71,0,
2,18816, Note_on_c,0,71,50,
2,18816, Note_on_c,0,74,50,
2,18816, Note_on_c,0,78,50,
2,18816, Note_on_c,0,83,50,
2,19200, Note_off_c,0,83,0,
2,19200, Note_off_c,0,78,0,
2,19200, Note_off_c,0,74,0,
2,19200, Note_off_c,0,71,0,
2,19392, Note_on_c,0,83,50,
2,19392, Note_on_c,0,71,50,
2,19392, Note_on_c,0,74,50,
2,19392, Note_on_c,0,78,50,
2,19584, Note_off_c,0,83,0,
2,19584, Note_off_c,0,78,0,
2,19584, Note_off_c,0,74,0,
2,19584, Note_off_c,0,71,0,
2,19584, Note_on_c,0,74,50,
2,19680, Note_off_c,0,74,0,
2,19712, Note_on_c,0,71,50,
2,19808, Note_off_c,0,71,0,
2,19841, Note_on_c,0,71,50,
2,19937, Note_off_c,0,71,0,
2,19969, Note_on_c,0,71,50,
2,20257, Note_off_c,0,71,0,
2,20257, Note_on_c,0,71,50,
2,20545, Note_off_c,0,71,0,
2,20545, Note_on_c,0,71,50,
2,20833, Note_off_c,0,71,0,
2,20833, Note_on_c,0,71,50,
2,21121, Note_off_c,0,71,0,
2,21121, Note_on_c,0,71,50,
2,21217, Note_off_c,0,71,0,
2,21217, Note_on_c,0,73,50,
2,21313, Note_off_c,0,73,0,
2,21313, Note_on_c,0,74,50,
2,21409, Note_off_c,0,74,0,
2,21409, Note_on_c,0,76,50,
2,21505, Note_off_c,0,76,0,
2,21697, Note_on_c,0,62,50,
2,21697, Note_on_c,0,71,50,
2,21697, Note_on_c,0,66,50,
2,21889, Note_off_c,0,66,0,
2,21889, Note_off_c,0,71,0,
2,21889, Note_off_c,0,62,0,
2,22273, Note_on_c,0,78,50,
2,22273, Note_on_c,0,83,50,
2,22273, Note_on_c,0,74,50,
2,22465, Note_off_c,0,74,0,
2,22465, Note_off_c,0,83,0,
2,22465, Note_off_c,0,78,0,
2,22849, Note_on_c,0,62,50,
2,22849, Note_on_c,0,66,50,
2,22849, Note_on_c,0,71,50,
2,23041, Note_off_c,0,71,0,
2,23041, Note_off_c,0,66,0,
2,23041, Note_off_c,0,62,0,
2,23041, Note_on_c,0,83,50,
2,23041, Note_on_c,0,71,50,
2,23137, Note_off_c,0,83,0,
2,23137, Note_off_c,0,71,0,
2,23233, Note_on_c,0,71,50,
2,23233, Note_on_c,0,83,50,
2,23329, Note_off_c,0,83,0,
2,23329, Note_off_c,0,71,0,
2,23425, Note_on_c,0,71,50,
2,23425, Note_on_c,0,83,50,
2,23521, Note_off_c,0,83,0,
2,23521, Note_off_c,0,71,0,
2,23617, Note_on_c,0,81,50,
2,23617, Note_on_c,0,69,50,
2,23713, Note_off_c,0,81,0,
2,23713, Note_off_c,0,69,0,
2,23713, Note_on_c,0,71,50,
2,23713, Note_on_c,0,83,50,
2,24001, Note_off_c,0,83,0,
2,24001, Note_off_c,0,71,0,
2,24193, Note_off_c,0,59,0,
2,24193, Note_on_c,0,59,50,
2,24289, Note_on_c,0,61,50,
2,24385, Note_off_c,0,61,0,
2,24385, Note_on_c,0,62,50,
2,24481, Note_off_c,0,62,0,
2,24481, Note_on_c,0,64,50,
2,24577, Note_off_c,0,64,0,
2,24577, Note_on_c,0,59,50,
2,24577, Note_on_c,0,66,50,
2,25441, Note_off_c,0,59,0,
2,25441, Note_off_c,0,66,0,
2,25537, Note_on_c,0,59,50,
2,25729, Note_off_c,0,59,0,
2,25729, Note_on_c,0,62,50,
2,25921, Note_off_c,0,62,0,
2,25921, Note_on_c,0,69,50,
2,26113, Note_off_c,0,69,0,
2,26113, Note_on_c,0,62,50,
2,26113, Note_on_c,0,68,50,
2,26113, Note_on_c,0,59,50,
2,26977, Note_off_c,0,59,0,
2,26977, Note_off_c,0,68,0,
2,26977, Note_off_c,0,62,0,
2,27073, Note_on_c,0,66,50,
2,27457, Note_off_c,0,66,0,
2,27457, Note_on_c,0,64,50,
2,27649, Note_off_c,0,64,0,
2,27649, Note_on_c,0,62,50,
2,27649, Note_on_c,0,59,50,
2,27649, Note_on_c,0,66,50,
2,27649, Note_on_c,0,54,50,
2,29089, Note_off_c,0,59,0,
2,29089, Note_off_c,0,62,0,
2,29089, Note_off_c,0,54,0,
2,29089, Note_off_c,0,66,0,
2,29185, Note_on_c,0,59,50,
2,29473, Note_off_c,0,59,0,
2,29473, Note_on_c,0,59,50,
2,29761, Note_off_c,0,59,0,
2,29761, Note_on_c,0,59,50,
2,30049, Note_off_c,0,59,0,
2,30049, Note_on_c,0,59,50,
2,30337, Note_off_c,0,59,0,
2,30337, Note_on_c,0,59,50,
2,30433, Note_off_c,0,59,0,
2,30433, Note_on_c,0,61,50,
2,30529, Note_off_c,0,61,0,
2,30529, Note_on_c,0,62,50,
2,30625, Note_off_c,0,62,0,
2,30625, Note_on_c,0,64,50,
2,30721, Note_off_c,0,64,0,
2,30721, Note_on_c,0,59,50,
2,30721, Note_on_c,0,66,50,
2,31585, Note_off_c,0,59,0,
2,31585, Note_off_c,0,66,0,
2,31681, Note_on_c,0,59,50,
2,31873, Note_off_c,0,59,0,
2,31873, Note_on_c,0,62,50,
2,32065, Note_off_c,0,62,0,
2,32065, Note_on_c,0,69,50,
2,32257, Note_off_c,0,69,0,
2,32257, Note_on_c,0,64,50,
2,32257, Note_on_c,0,68,50,
2,32833, Note_off_c,0,68,0,
2,32833, Note_off_c,0,64,0,
2,32833, Note_on_c,0,69,50,
2,32833, Note_on_c,0,66,50,
2,33409, Note_off_c,0,66,0,
2,33409, Note_off_c,0,69,0,
2,33409, Note_on_c,0,68,50,
2,33409, Note_on_c,0,71,50,
2,33793, Note_off_c,0,71,0,
2,33793, Note_off_c,0,68,0,
2,33793, Note_on_c,0,59,50,
2,33793, Note_on_c,0,68,50,
2,34081, Note_off_c,0,68,0,
2,34081, Note_off_c,0,59,0,
2,34081, Note_on_c,0,66,50,
2,34081, Note_on_c,0,62,50,
2,35137, Note_off_c,0,66,0,
2,35137, Note_off_c,0,62,0,
2,36481, Note_on_c,0,59,50,
2,36577, Note_off_c,0,59,0,
2,36577, Note_on_c,0,61,50,
2,36673, Note_off_c,0,61,0,
2,36673, Note_on_c,0,62,50,
2,36769, Note_off_c,0,62,0,
2,36769, Note_on_c,0,64,50,
2,36865, Note_off_c,0,64,0,
2,36865, Note_on_c,0,78,50,
2,36865, Note_on_c,0,74,50,
2,36865, Note_on_c,0,66,50,
2,37729, Note_off_c,0,78,0,
2,37729, Note_off_c,0,74,0,
2,37729, Note_off_c,0,66,0,
2,37825, Note_on_c,0,59,50,
2,37825, Note_on_c,0,66,50,
2,37825, Note_on_c,0,71,50,
2,38017, Note_off_c,0,71,0,
2,38017, Note_off_c,0,66,0,
2,38017, Note_off_c,0,59,0,
2,38017, Note_on_c,0,62,50,
2,38017, Note_on_c,0,71,50,
2,38017, Note_on_c,0,74,50,
2,38209, Note_off_c,0,62,0,
2,38209, Note_off_c,0,74,0,
2,38209, Note_off_c,0,71,0,
2,38209, Note_on_c,0,69,50,
2,38209, Note_on_c,0,74,50,
2,38209, Note_on_c,0,81,50,
2,38401, Note_off_c,0,81,0,
2,38401, Note_off_c,0,74,0,
2,38401, Note_off_c,0,69,0,
2,38401, Note_on_c,0,68,50,
2,38441, Note_on_c,0,71,50,
2,38481, Note_on_c,0,80,50,
2,39305, Note_off_c,0,71,0,
2,39345, Note_off_c,0,80,0,
2,39360, Note_off_c,0,68,0,
2,39360, Note_on_c,0,66,50,
2,39360, Note_on_c,0,78,50,
2,39744, Note_off_c,0,78,0,
2,39744, Note_off_c,0,66,0,
2,39744, Note_on_c,0,64,50,
2,39744, Note_on_c,0,76,50,
2,39936, Note_off_c,0,76,0,
2,39936, Note_off_c,0,64,0,
2,39936, Note_on_c,0,71,50,
2,39936, Note_on_c,0,74,50,
2,39936, Note_on_c,0,78,50,
2,39936, Note_on_c,0,66,50,
2,41376, Note_off_c,0,66,0,
2,41376, Note_off_c,0,78,0,
2,41376, Note_off_c,0,71,0,
2,41376, Note_off_c,0,74,0,
2,41472, Note_on_c,0,59,50,
2,41760, Note_off_c,0,59,0,
2,41760, Note_on_c,0,59,50,
2,42048, Note_off_c,0,59,0,
2,42048, Note_on_c,0,59,50,
2,42336, Note_off_c,0,59,0,
2,42336, Note_on_c,0,59,50,
2,42624, Note_off_c,0,59,0,
2,42624, Note_on_c,0,59,50,
2,42720, Note_off_c,0,59,0,
2,42720, Note_on_c,0,61,50,
2,42816, Note_off_c,0,61,0,
2,42816, Note_on_c,0,62,50,
2,42912, Note_off_c,0,62,0,
2,42912, Note_on_c,0,64,50,
2,43008, Note_off_c,0,64,0,
2,43008, Note_on_c,0,78,50,
2,43008, Note_on_c,0,74,50,
2,43008, Note_on_c,0,66,50,
2,43872, Note_off_c,0,78,0,
2,43872, Note_off_c,0,66,0,
2,43872, Note_off_c,0,74,0,
2,43968, Note_on_c,0,66,50,
2,43968, Note_on_c,0,71,50,
2,43968, Note_on_c,0,59,50,
2,44160, Note_off_c,0,59,0,
2,44160, Note_off_c,0,71,0,
2,44160, Note_off_c,0,66,0,
2,44160, Note_on_c,0,71,50,
2,44160, Note_on_c,0,74,50,
2,44160, Note_on_c,0,62,50,
2,44352, Note_off_c,0,62,0,
2,44352, Note_off_c,0,74,0,
2,44352, Note_off_c,0,71,0,
2,44352, Note_on_c,0,69,50,
2,44352, Note_on_c,0,74,50,
2,44352, Note_on_c,0,81,50,
2,44544, Note_off_c,0,81,0,
2,44544, Note_off_c,0,74,0,
2,44544, Note_off_c,0,69,0,
2,44544, Note_on_c,0,83,50,
2,44544, Note_on_c,0,74,50,
2,44544, Note_on_c,0,71,50,
2,45120, Note_off_c,0,83,0,
2,45120, Note_off_c,0,74,0,
2,45120, Note_off_c,0,71,0,
2,45120, Note_on_c,0,73,50,
2,45120, Note_on_c,0,81,50,
2,45120, Note_on_c,0,69,50,
2,45696, Note_off_c,0,69,0,
2,45696, Note_off_c,0,81,0,
2,45696, Note_off_c,0,73,0,
2,45696, Note_on_c,0,78,50,
2,45696, Note_on_c,0,71,50,
2,45696, Note_on_c,0,68,50,
2,46080, Note_off_c,0,78,0,
2,46080, Note_off_c,0,71,0,
2,46080, Note_off_c,0,68,0,
2,46080, Note_on_c,0,66,50,
2,46131, Note_on_c,0,71,50,
2,46181, Note_on_c,0,74,50,
2,46234, Note_on_c,0,78,50,
2,47571, Note_off_c,0,71,0,
2,47578, Note_off_c,0,78,0,
2,47616, Note_off_c,0,66,0,
2,47621, Note_off_c,0,74,0,
2,48384, Note_on_c,0,71,50,
2,48384, Note_on_c,0,59,50,
2,48768, Note_off_c,0,71,0,
2,48768, Note_off_c,0,59,0,
2,48768, Note_on_c,0,74,50,
2,48864, Note_off_c,0,74,0,
2,48864, Note_on_c,0,73,50,
2,48960, Note_off_c,0,73,0,
2,48960, Note_on_c,0,71,50,
2,49152, Note_off_c,0,71,0,
2,49152, Note_on_c,0,69,50,
2,49440, Note_off_c,0,69,0,
2,49440, Note_on_c,0,71,50,
2,49728, Note_off_c,0,71,0,
2,49728, Note_on_c,0,71,50,
2,50016, Note_off_c,0,71,0,
2,50112, Note_on_c,0,66,50,
2,50304, Note_off_c,0,66,0,
2,50304, Note_on_c,0,69,50,
2,50496, Note_off_c,0,69,0,
2,50496, Note_on_c,0,71,50,
2,50688, Note_off_c,0,71,0,
2,50688, Note_on_c,0,73,50,
2,50976, Note_off_c,0,73,0,
2,50976, Note_on_c,0,69,50,
2,51264, Note_off_c,0,69,0,
2,51264, Note_on_c,0,71,50,
2,51552, Note_off_c,0,71,0,
2,51840, Note_on_c,0,74,50,
2,51936, Note_off_c,0,74,0,
2,51936, Note_on_c,0,73,50,
2,52032, Note_off_c,0,73,0,
2,52032, Note_on_c,0,71,50,
2,52224, Note_off_c,0,71,0,
2,52224, Note_on_c,0,69,50,
2,52512, Note_off_c,0,69,0,
2,52512, Note_on_c,0,71,50,
2,52800, Note_off_c,0,71,0,
2,52800, Note_on_c,0,71,50,
2,53088, Note_off_c,0,71,0,
2,53184, Note_on_c,0,66,50,
2,53376, Note_off_c,0,66,0,
2,53376, Note_on_c,0,73,50,
2,53568, Note_off_c,0,73,0,
2,53568, Note_on_c,0,74,50,
2,53760, Note_off_c,0,74,0,
2,53760, Note_on_c,0,73,50,
2,54048, Note_off_c,0,73,0,
2,54048, Note_on_c,0,69,50,
2,54336, Note_off_c,0,69,0,
2,54336, Note_on_c,0,64,50,
2,54624, Note_off_c,0,64,0,
2,54912, Note_on_c,0,74,50,
2,55008, Note_off_c,0,74,0,
2,55008, Note_on_c,0,73,50,
2,55104, Note_off_c,0,73,0,
2,55104, Note_on_c,0,71,50,
2,55296, Note_off_c,0,71,0,
2,55296, Note_on_c,0,69,50,
2,55296, Note_on_c,0,81,50,
2,55584, Note_off_c,0,81,0,
2,55584, Note_off_c,0,69,0,
2,55584, Note_on_c,0,83,50,
2,55584, Note_on_c,0,71,50,
2,55872, Note_off_c,0,83,0,
2,55872, Note_off_c,0,71,0,
2,55872, Note_on_c,0,71,50,
2,55872, Note_on_c,0,83,50,
2,56160, Note_off_c,0,83,0,
2,56160, Note_off_c,0,71,0,
2,56256, Note_on_c,0,66,50,
2,56256, Note_on_c,0,78,50,
2,56448, Note_off_c,0,78,0,
2,56448, Note_off_c,0,66,0,
2,56448, Note_on_c,0,81,50,
2,56448, Note_on_c,0,69,50,
2,56640, Note_off_c,0,69,0,
2,56640, Note_off_c,0,81,0,
2,56640, Note_on_c,0,71,50,
2,56640, Note_on_c,0,83,50,
2,56832, Note_off_c,0,71,0,
2,56832, Note_off_c,0,83,0,
2,56832, Note_on_c,0,73,50,
2,56832, Note_on_c,0,85,50,
2,57120, Note_off_c,0,85,0,
2,57120, Note_off_c,0,73,0,
2,57120, Note_on_c,0,81,50,
2,57120, Note_on_c,0,69,50,
2,57408, Note_off_c,0,69,0,
2,57408, Note_off_c,0,81,0,
2,57408, Note_on_c,0,71,50,
2,57408, Note_on_c,0,83,50,
2,57696, Note_off_c,0,83,0,
2,57696, Note_off_c,0,71,0,
2,57984, Note_on_c,0,74,50,
2,57984, Note_on_c,0,86,50,
2,58080, Note_off_c,0,86,0,
2,58080, Note_off_c,0,74,0,
2,58080, Note_on_c,0,73,50,
2,58080, Note_on_c,0,85,50,
2,58176, Note_off_c,0,85,0,
2,58176, Note_off_c,0,73,0,
2,58176, Note_on_c,0,83,50,
2,58176, Note_on_c,0,71,50,
2,58272, Note_off_c,0,83,0,
2,58272, Note_off_c,0,71,0,
2,58368, Note_on_c,0,83,50,
2,58368, Note_on_c,0,71,50,
2,58464, Note_off_c,0,71,0,
2,58464, Note_off_c,0,83,0,
2,58496, Note_on_c,0,74,50,
2,58496, Note_on_c,0,86,50,
2,58592, Note_off_c,0,86,0,
2,58592, Note_off_c,0,74,0,
2,58625, Note_on_c,0,90,50,
2,58625, Note_on_c,0,78,50,
2,58721, Note_off_c,0,78,0,
2,58721, Note_off_c,0,90,0,
2,58753, Note_on_c,0,76,50,
2,58753, Note_on_c,0,88,50,
2,58849, Note_off_c,0,88,0,
2,58849, Note_off_c,0,76,0,
2,58881, Note_on_c,0,74,50,
2,58881, Note_on_c,0,86,50,
2,58977, Note_off_c,0,86,0,
2,58977, Note_off_c,0,74,0,
2,59010, Note_on_c,0,83,50,
2,59010, Note_on_c,0,71,50,
2,59106, Note_off_c,0,83,0,
2,59106, Note_off_c,0,71,0,
2,59138, Note_on_c,0,81,50,
2,59138, Note_on_c,0,93,50,
2,59234, Note_off_c,0,93,0,
2,59234, Note_off_c,0,81,0,
2,59266, Note_on_c,0,80,50,
2,59266, Note_on_c,0,92,50,
2,59362, Note_off_c,0,92,0,
2,59362, Note_off_c,0,80,0,
2,59395, Note_on_c,0,90,50,
2,59395, Note_on_c,0,78,50,
2,59491, Note_off_c,0,90,0,
2,59491, Note_off_c,0,78,0,
2,59523, Note_on_c,0,74,50,
2,59523, Note_on_c,0,86,50,
2,59619, Note_off_c,0,86,0,
2,59619, Note_off_c,0,74,0,
2,59651, Note_on_c,0,73,50,
2,59651, Note_on_c,0,85,50,
2,59747, Note_off_c,0,85,0,
2,59747, Note_off_c,0,73,0,
2,59780, Note_on_c,0,83,50,
2,59780, Note_on_c,0,71,50,
2,59876, Note_off_c,0,83,0,
2,59876, Note_off_c,0,71,0,
2,59908, Note_on_c,0,69,50,
2,60004, Note_off_c,0,69,0,
2,60004, Note_on_c,0,71,50,
2,60196, Note_off_c,0,71,0,
2,60196, Note_on_c,0,69,50,
2,60292, Note_off_c,0,69,0,
2,60292, Note_on_c,0,71,50,
2,60484, Note_off_c,0,71,0,
2,60484, Note_on_c,0,69,50,
2,60580, Note_off_c,0,69,0,
2,60580, Note_on_c,0,71,50,
2,60772, Note_off_c,0,71,0,
2,60772, Note_on_c,0,69,50,
2,60868, Note_off_c,0,69,0,
2,60868, Note_on_c,0,71,50,
2,61060, Note_off_c,0,71,0,
2,61060, Note_on_c,0,71,50,
2,61156, Note_off_c,0,71,0,
2,61156, Note_on_c,0,73,50,
2,61252, Note_off_c,0,73,0,
2,61252, Note_on_c,0,74,50,
2,61348, Note_off_c,0,74,0,
2,61348, Note_on_c,0,76,50,
2,61444, Note_off_c,0,76,0,
2,61444, Note_on_c,0,71,50,
2,61444, Note_on_c,0,78,50,
2,61444, Note_on_c,0,74,50,
2,61828, Note_off_c,0,78,0,
2,61828, Note_off_c,0,71,0,
2,61828, Note_off_c,0,74,0,
2,62020, Note_on_c,0,77,50,
2,62020, Note_on_c,0,74,50,
2,62020, Note_on_c,0,68,50,
2,62020, Note_on_c,0,71,50,
2,62788, Note_off_c,0,74,0,
2,62788, Note_off_c,0,71,0,
2,62788, Note_off_c,0,77,0,
2,62788, Note_off_c,0,68,0,
2,62788, Note_on_c,0,74,50,
2,62884, Note_off_c,0,74,0,
2,62884, Note_on_c,0,76,50,
2,62980, Note_off_c,0,76,0,
2,62980, Note_on_c,0,68,50,
2,62980, Note_on_c,0,71,50,
2,62980, Note_on_c,0,77,50,
2,63268, Note_off_c,0,77,0,
2,63268, Note_off_c,0,71,0,
2,63268, Note_off_c,0,68,0,
2,63268, Note_on_c,0,76,50,
2,63556, Note_off_c,0,76,0,
2,63556, Note_on_c,0,74,50,
2,63748, Note_off_c,0,74,0,
2,63748, Note_on_c,0,70,50,
2,63748, Note_on_c,0,73,50,
2,63748, Note_on_c,0,64,50,
2,64036, Note_off_c,0,64,0,
2,64036, Note_off_c,0,73,0,
2,64036, Note_off_c,0,70,0,
2,64036, Note_on_c,0,74,50,
2,64324, Note_off_c,0,74,0,
2,64324, Note_on_c,0,76,50,
2,64516, Note_off_c,0,76,0,
2,64516, Note_on_c,0,78,50,
2,64516, Note_on_c,0,71,50,
2,64516, Note_on_c,0,74,50,
2,64900, Note_off_c,0,78,0,
2,64900, Note_off_c,0,74,0,
2,64900, Note_off_c,0,71,0,
2,64900, Note_on_c,0,78,50,
2,65092, Note_off_c,0,78,0,
2,65092, Note_on_c,0,83,50,
2,65092, Note_on_c,0,80,50,
2,65092, Note_on_c,0,74,50,
2,65092, Note_on_c,0,77,50,
2,65668, Note_off_c,0,80,0,
2,65668, Note_off_c,0,74,0,
2,65668, Note_off_c,0,83,0,
2,65668, Note_off_c,0,77,0,
2,65668, Note_on_c,0,71,50,
2,65860, Note_off_c,0,71,0,
2,65860, Note_on_c,0,73,50,
2,66052, Note_off_c,0,73,0,
2,66052, Note_on_c,0,71,50,
2,66052, Note_on_c,0,74,50,
2,66052, Note_on_c,0,68,50,
2,66340, Note_off_c,0,68,0,
2,66340, Note_off_c,0,71,0,
2,66340, Note_off_c,0,74,0,
2,66340, Note_on_c,0,76,50,
2,66628, Note_off_c,0,76,0,
2,66628, Note_on_c,0,74,50,
2,66820, Note_off_c,0,74,0,
2,66820, Note_on_c,0,64,50,
2,66820, Note_on_c,0,70,50,
2,66820, Note_on_c,0,73,50,
2,67108, Note_off_c,0,73,0,
2,67108, Note_off_c,0,70,0,
2,67108, Note_off_c,0,64,0,
2,67108, Note_on_c,0,81,50,
2,67396, Note_off_c,0,81,0,
2,67396, Note_on_c,0,79,50,
2,67588, Note_off_c,0,79,0,
2,67588, Note_on_c,0,71,50,
2,67588, Note_on_c,0,74,50,
2,67588, Note_on_c,0,78,50,
2,67972, Note_off_c,0,71,0,
2,67972, Note_off_c,0,78,0,
2,67972, Note_off_c,0,74,0,
2,68164, Note_on_c,0,77,50,
2,68164, Note_on_c,0,74,50,
2,68164, Note_on_c,0,71,50,
2,68164, Note_on_c,0,68,50,
2,68932, Note_off_c,0,77,0,
2,68932, Note_off_c,0,71,0,
2,68932, Note_off_c,0,68,0,
2,68932, Note_off_c,0,74,0,
2,68932, Note_on_c,0,74,50,
2,69028, Note_off_c,0,74,0,
2,69028, Note_on_c,0,76,50,
2,69124, Note_off_c,0,76,0,
2,69124, Note_on_c,0,77,50,
2,69124, Note_on_c,0,68,50,
2,69124, Note_on_c,0,71,50,
2,69412, Note_off_c,0,71,0,
2,69412, Note_off_c,0,77,0,
2,69412, Note_off_c,0,68,0,
2,69412, Note_on_c,0,76,50,
2,69700, Note_off_c,0,76,0,
2,69700, Note_on_c,0,74,50,
2,69892, Note_off_c,0,74,0,
2,69892, Note_on_c,0,64,50,
2,69892, Note_on_c,0,70,50,
2,69892, Note_on_c,0,73,50,
2,70180, Note_off_c,0,73,0,
2,70180, Note_off_c,0,70,0,
2,70180, Note_off_c,0,64,0,
2,70180, Note_on_c,0,74,50,
2,70468, Note_off_c,0,74,0,
2,70468, Note_on_c,0,76,50,
2,70660, Note_off_c,0,76,0,
2,70660, Note_on_c,0,71,50,
2,70660, Note_on_c,0,74,50,
2,70660, Note_on_c,0,78,50,
2,71044, Note_off_c,0,78,0,
2,71044, Note_off_c,0,74,0,
2,71044, Note_off_c,0,71,0,
2,71044, Note_on_c,0,78,50,
2,71236, Note_off_c,0,78,0,
2,71236, Note_on_c,0,77,50,
2,71236, Note_on_c,0,74,50,
2,71236, Note_on_c,0,80,50,
2,71236, Note_on_c,0,83,50,
2,71812, Note_off_c,0,74,0,
2,71812, Note_off_c,0,83,0,
2,71812, Note_off_c,0,77,0,
2,71812, Note_off_c,0,80,0,
2,71812, Note_on_c,0,83,50,
2,72004, Note_off_c,0,83,0,
2,72004, Note_on_c,0,85,50,
2,72196, Note_off_c,0,85,0,
2,72196, Note_on_c,0,80,50,
2,72196, Note_on_c,0,83,50,
2,72196, Note_on_c,0,86,50,
2,72484, Note_off_c,0,86,0,
2,72484, Note_off_c,0,83,0,
2,72484, Note_off_c,0,80,0,
2,72484, Note_on_c,0,79,50,
2,72772, Note_off_c,0,79,0,
2,72772, Note_on_c,0,78,50,
2,72964, Note_off_c,0,78,0,
2,72964, Note_on_c,0,77,50,
2,73252, Note_off_c,0,77,0,
2,73252, Note_on_c,0,86,50,
2,73540, Note_off_c,0,86,0,
2,73540, Note_on_c,0,82,50,
2,73732, Note_off_c,0,82,0,
2,73732, Note_on_c,0,71,50,
2,73783, Note_on_c,0,74,50,
2,73834, Note_on_c,0,78,50,
2,73886, Note_on_c,0,83,50,
2,74071, Note_off_c,0,74,0,
2,74078, Note_off_c,0,83,0,
2,74116, Note_off_c,0,71,0,
2,74122, Note_off_c,0,78,0,
2,79876, Note_on_c,0,83,50,
2,79876, Note_on_c,0,71,50,
2,79972, Note_off_c,0,71,0,
2,79972, Note_off_c,0,83,0,
2,80068, Note_on_c,0,71,50,
2,80068, Note_on_c,0,83,50,
2,80164, Note_off_c,0,83,0,
2,80164, Note_off_c,0,71,0,
2,80260, Note_on_c,0,71,50,
2,80260, Note_on_c,0,83,50,
2,80356, Note_off_c,0,83,0,
2,80356, Note_off_c,0,71,0,
2,80356, Note_on_c,0,69,50,
2,80356, Note_on_c,0,81,50,
2,80452, Note_off_c,0,81,0,
2,80452, Note_off_c,0,69,0,
2,80548, Note_on_c,0,71,50,
2,80548, Note_on_c,0,83,50,
2,80644, Note_off_c,0,71,0,
2,80644, Note_off_c,0,83,0,
2,80740, Note_on_c,0,74,50,
2,80740, Note_on_c,0,86,50,
2,80836, Note_off_c,0,86,0,
2,80836, Note_off_c,0,74,0,
2,80932, Note_on_c,0,83,50,
2,80932, Note_on_c,0,71,50,
2,81028, Note_off_c,0,71,0,
2,81028, Note_off_c,0,83,0,
2,81124, Note_on_c,0,66,50,
2,81124, Note_on_c,0,78,50,
2,81220, Note_off_c,0,78,0,
2,81220, Note_off_c,0,66,0,
2,81220, Note_on_c,0,69,50,
2,81220, Note_on_c,0,81,50,
2,81412, Note_off_c,0,81,0,
2,81412, Note_off_c,0,69,0,
2,81412, Note_on_c,0,83,50,
2,81412, Note_on_c,0,71,50,
2,81508, Note_off_c,0,83,0,
2,81508, Note_off_c,0,71,0,
2,81604, Note_on_c,0,83,50,
2,81604, Note_on_c,0,71,50,
2,81700, Note_off_c,0,71,0,
2,81700, Note_off_c,0,83,0,
2,81796, Note_off_c,0,83,0,
2,81796, Note_off_c,0,71,0,
2,81796, Note_on_c,0,71,50,
2,81796, Note_on_c,0,83,50,
2,81892, Note_off_c,0,69,0,
2,81892, Note_off_c,0,81,0,
2,81892, Note_on_c,0,81,50,
2,81892, Note_on_c,0,69,50,
2,82084, Note_on_c,0,71,50,
2,82084, Note_on_c,0,83,50,
2,82180, Note_off_c,0,83,0,
2,82180, Note_off_c,0,71,0,
2,82276, Note_on_c,0,77,50,
2,82276, Note_on_c,0,89,50,
2,82372, Note_off_c,0,89,0,
2,82372, Note_off_c,0,77,0,
2,82468, Note_on_c,0,76,50,
2,82468, Note_on_c,0,88,50,
2,82564, Note_off_c,0,76,0,
2,82564, Note_off_c,0,88,0,
2,82660, Note_on_c,0,74,50,
2,82660, Note_on_c,0,86,50,
2,82756, Note_off_c,0,74,0,
2,82756, Note_off_c,0,86,0,
2,82756, Note_on_c,0,69,50,
2,82756, Note_on_c,0,81,50,
2,82948, Note_off_c,0,81,0,
2,82948, Note_off_c,0,69,0,
2,82948, Note_on_c,0,83,50,
2,82948, Note_on_c,0,71,50,
2,83044, Note_off_c,0,71,0,
2,83044, Note_off_c,0,83,0,
2,83140, Note_on_c,0,71,50,
2,83140, Note_on_c,0,83,50,
2,83236, Note_off_c,0,83,0,
2,83236, Note_off_c,0,71,0,
2,83332, Note_on_c,0,71,50,
2,83332, Note_on_c,0,83,50,
2,83428, Note_off_c,0,83,0,
2,83428, Note_off_c,0,71,0,
2,83428, Note_on_c,0,81,50,
2,83428, Note_on_c,0,69,50,
2,83524, Note_off_c,0,69,0,
2,83524, Note_off_c,0,81,0,
2,83620, Note_on_c,0,83,50,
2,83620, Note_on_c,0,71,50,
2,83716, Note_off_c,0,71,0,
2,83716, Note_off_c,0,83,0,
2,83812, Note_on_c,0,74,50,
2,83812, Note_on_c,0,86,50,
2,83908, Note_off_c,0,86,0,
2,83908, Note_off_c,0,74,0,
2,84004, Note_on_c,0,83,50,
2,84004, Note_on_c,0,71,50,
2,84100, Note_off_c,0,83,0,
2,84100, Note_off_c,0,71,0,
2,84196, Note_on_c,0,66,50,
2,84196, Note_on_c,0,78,50,
2,84292, Note_off_c,0,78,0,
2,84292, Note_off_c,0,66,0,
2,84292, Note_on_c,0,69,50,
2,84292, Note_on_c,0,81,50,
2,84484, Note_off_c,0,81,0,
2,84484, Note_off_c,0,69,0,
2,84484, Note_on_c,0,74,50,
2,84484, Note_on_c,0,78,50,
2,84484, Note_on_c,0,71,50,
2,84484, Note_on_c,0,83,50,
2,84580, Note_off_c,0,74,0,
2,84580, Note_off_c,0,83,0,
2,84580, Note_off_c,0,78,0,
2,84580, Note_off_c,0,71,0,
2,84676, Note_on_c,0,71,50,
2,84676, Note_on_c,0,78,50,
2,84676, Note_on_c,0,74,50,
2,84676, Note_on_c,0,83,50,
2,84772, Note_off_c,0,83,0,
2,84772, Note_off_c,0,78,0,
2,84772, Note_off_c,0,74,0,
2,84772, Note_off_c,0,71,0,
2,84868, Note_on_c,0,83,50,
2,84868, Note_on_c,0,71,50,
2,84868, Note_on_c,0,74,50,
2,84868, Note_on_c,0,78,50,
2,84964, Note_off_c,0,78,0,
2,84964, Note_off_c,0,74,0,
2,84964, Note_off_c,0,71,0,
2,84964, Note_off_c,0,83,0,
2,85060, Note_on_c,0,76,50,
2,85060, Note_on_c,0,73,50,
2,85060, Note_on_c,0,69,50,
2,85060, Note_on_c,0,81,50,
2,85156, Note_off_c,0,73,0,
2,85156, Note_off_c,0,76,0,
2,85156, Note_off_c,0,69,0,
2,85156, Note_off_c,0,81,0,
2,85156, Note_on_c,0,71,50,
2,85156, Note_on_c,0,74,50,
2,85156, Note_on_c,0,78,50,
2,85156, Note_on_c,0,83,50,
2,85252, Note_off_c,0,83,0,
2,85252, Note_off_c,0,78,0,
2,85252, Note_off_c,0,74,0,
2,85252, Note_off_c,0,71,0,
2,85252, Note_on_c,0,83,50,
2,85252, Note_on_c,0,71,50,
2,85540, Note_off_c,0,83,0,
2,85540, Note_off_c,0,71,0,
2,85876, Note_off_c,0,77,0,
2,85876, Note_on_c,0,77,50,
2,85924, Note_off_c,0,78,0,
2,85924, Note_on_c,0,78,50,
2,85972, Note_off_c,0,79,0,
2,85972, Note_on_c,0,79,50,
2,86020, Note_on_c,0,74,50,
2,86020, Note_on_c,0,78,50,
2,86884, Note_off_c,0,78,0,
2,86884, Note_off_c,0,74,0,
2,86980, Note_on_c,0,76,50,
2,87364, Note_off_c,0,76,0,
2,87364, Note_on_c,0,74,50,
2,87556, Note_off_c,0,74,0,
2,87556, Note_on_c,0,73,50,
2,87556, Note_on_c,0,76,50,
2,87748, Note_off_c,0,76,0,
2,87748, Note_off_c,0,73,0,
2,87844, Note_on_c,0,69,50,
2,87844, Note_on_c,0,73,50,
2,88036, Note_off_c,0,73,0,
2,88036, Note_off_c,0,69,0,
2,88132, Note_on_c,0,69,50,
2,88132, Note_on_c,0,66,50,
2,88324, Note_off_c,0,69,0,
2,88324, Note_off_c,0,66,0,
2,88420, Note_on_c,0,62,50,
2,88420, Note_on_c,0,66,50,
2,88612, Note_off_c,0,66,0,
2,88612, Note_off_c,0,62,0,
2,88708, Note_on_c,0,66,50,
2,88708, Note_on_c,0,71,50,
2,89092, Note_off_c,0,71,0,
2,89092, Note_off_c,0,66,0,
2,89092, Note_on_c,0,71,50,
2,89476, Note_off_c,0,71,0,
2,89860, Note_on_c,0,65,50,
2,90244, Note_off_c,0,65,0,
2,90244, Note_on_c,0,65,50,
2,90340, Note_off_c,0,65,0,
2,90340, Note_on_c,0,64,50,
2,90436, Note_off_c,0,64,0,
2,90436, Note_on_c,0,62,50,
2,90532, Note_off_c,0,62,0,
2,90820, Note_on_c,0,71,50,
2,91012, Note_off_c,0,71,0,
2,91108, Note_on_c,0,69,50,
2,91300, Note_off_c,0,69,0,
2,91300, Note_on_c,0,66,50,
2,91396, Note_off_c,0,66,0,
2,91396, Note_on_c,0,69,50,
2,91588, Note_off_c,0,69,0,
2,91588, Note_on_c,0,71,50,
2,91780, Note_off_c,0,71,0,
2,91780, Note_on_c,0,74,50,
2,91972, Note_off_c,0,74,0,
2,91972, Note_on_c,0,76,50,
2,92164, Note_off_c,0,76,0,
2,92164, Note_on_c,0,78,50,
2,92260, Note_off_c,0,78,0,
2,92548, Note_on_c,0,71,50,
2,92644, Note_off_c,0,71,0,
2,92644, Note_on_c,0,74,50,
2,92740, Note_off_c,0,74,0,
2,92740, Note_on_c,0,76,50,
2,92836, Note_off_c,0,76,0,
2,92836, Note_off_c,0,81,0,
2,92836, Note_on_c,0,81,50,
2,92883, Note_off_c,0,83,0,
2,92883, Note_on_c,0,83,50,
2,92932, Note_off_c,0,81,0,
2,92932, Note_on_c,0,81,50,
2,92979, Note_off_c,0,83,0,
2,92979, Note_on_c,0,83,50,
2,93028, Note_off_c,0,81,0,
2,93028, Note_on_c,0,81,50,
2,93075, Note_off_c,0,83,0,
2,93075, Note_on_c,0,83,50,
2,93124, Note_off_c,0,81,0,
2,93124, Note_on_c,0,81,50,
2,93171, Note_off_c,0,83,0,
2,93171, Note_on_c,0,83,50,
2,93220, Note_off_c,0,81,0,
2,93220, Note_on_c,0,81,50,
2,93267, Note_off_c,0,83,0,
2,93267, Note_on_c,0,83,50,
2,93316, Note_off_c,0,81,0,
2,93316, Note_on_c,0,81,50,
2,93363, Note_off_c,0,83,0,
2,93363, Note_on_c,0,83,50,
2,93412, Note_off_c,0,81,0,
2,93412, Note_on_c,0,81,50,
2,93459, Note_off_c,0,83,0,
2,93459, Note_on_c,0,83,50,
2,93508, Note_off_c,0,81,0,
2,93508, Note_on_c,0,81,50,
2,93555, Note_off_c,0,83,0,
2,93555, Note_on_c,0,83,50,
2,93700, Note_on_c,0,76,50,
2,93796, Note_off_c,0,76,0,
2,93796, Note_on_c,0,74,50,
2,93892, Note_off_c,0,74,0,
2,93892, Note_on_c,0,71,50,
2,93988, Note_off_c,0,71,0,
2,94084, Note_on_c,0,74,50,
2,94276, Note_off_c,0,74,0,
2,94276, Note_on_c,0,76,50,
2,94468, Note_off_c,0,76,0,
2,94660, Note_on_c,0,74,50,
2,94852, Note_off_c,0,74,0,
2,94852, Note_on_c,0,74,50,
2,94948, Note_off_c,0,74,0,
2,94948, Note_on_c,0,74,50,
2,95140, Note_off_c,0,74,0,
2,95140, Note_on_c,0,74,50,
2,95236, Note_off_c,0,74,0,
2,95236, Note_on_c,0,74,50,
2,95428, Note_off_c,0,74,0,
2,95428, Note_on_c,0,74,50,
2,95524, Note_off_c,0,74,0,
2,95524, Note_on_c,0,74,50,
2,95716, Note_off_c,0,74,0,
2,95716, Note_on_c,0,74,50,
2,95812, Note_off_c,0,74,0,
2,95812, Note_on_c,0,74,50,
2,96004, Note_off_c,0,74,0,
2,96100, Note_on_c,0,76,50,
2,96292, Note_off_c,0,76,0,
2,96292, Note_on_c,0,74,50,
2,96388, Note_off_c,0,74,0,
2,96388, Note_on_c,0,76,50,
2,96484, Note_off_c,0,76,0,
2,96484, Note_on_c,0,74,50,
2,96580, Note_off_c,0,74,0,
2,96580, Note_on_c,0,71,50,
2,96772, Note_off_c,0,71,0,
2,96772, Note_on_c,0,74,50,
2,96868, Note_off_c,0,74,0,
2,96868, Note_on_c,0,71,50,
2,96964, Note_off_c,0,71,0,
2,98164, Note_off_c,0,71,0,
2,98164, Note_on_c,0,71,50,
2,98212, Note_off_c,0,74,0,
2,98212, Note_on_c,0,74,50,
2,98260, Note_off_c,0,76,0,
2,98260, Note_on_c,0,76,50,
2,98308, Note_on_c,0,81,50,
2,98692, Note_off_c,0,81,0,
2,98692, Note_on_c,0,71,50,
2,98692, Note_on_c,0,74,50,
2,98692, Note_on_c,0,78,50,
2,98692, Note_on_c,0,81,50,
2,100324, Note_off_c,0,81,0,
2,100324, Note_off_c,0,78,0,
2,100324, Note_off_c,0,74,0,
2,100324, Note_off_c,0,71,0,
2,100420, Note_on_c,0,68,50,
2,100471, Note_on_c,0,80,50,
2,101143, Note_off_c,0,80,0,
2,101188, Note_off_c,0,68,0,
2,101188, Note_on_c,0,66,50,
2,101188, Note_on_c,0,78,50,
2,101284, Note_off_c,0,66,0,
2,101284, Note_off_c,0,78,0,
2,101284, Note_on_c,0,64,50,
2,101284, Note_on_c,0,76,50,
2,101380, Note_off_c,0,76,0,
2,101380, Note_off_c,0,64,0,
2,101380, Note_on_c,0,80,50,
2,101380, Note_on_c,0,68,50,
2,101764, Note_off_c,0,80,0,
2,101764, Note_off_c,0,68,0,
2,101764, Note_on_c,0,66,50,
2,101764, Note_on_c,0,78,50,
2,102148, Note_off_c,0,78,0,
2,102148, Note_off_c,0,66,0,
2,102724, Note_on_c,0,62,50,
2,102724, Note_on_c,0,74,50,
2,102820, Note_off_c,0,74,0,
2,102820, Note_off_c,0,62,0,
2,102820, Note_on_c,0,74,50,
2,102820, Note_on_c,0,62,50,
2,102916, Note_off_c,0,62,0,
2,102916, Note_off_c,0,74,0,
2,102916, Note_on_c,0,62,50,
2,102916, Note_on_c,0,74,50,
2,103108, Note_off_c,0,62,0,
2,103108, Note_off_c,0,74,0,
2,103108, Note_on_c,0,62,50,
2,103108, Note_on_c,0,74,50,
2,103300, Note_off_c,0,74,0,
2,103300, Note_off_c,0,62,0,
2,103300, Note_on_c,0,74,50,
2,103300, Note_on_c,0,62,50,
2,103492, Note_off_c,0,62,0,
2,103492, Note_off_c,0,74,0,
2,103492, Note_on_c,0,62,50,
2,103492, Note_on_c,0,74,50,
2,103588, Note_off_c,0,74,0,
2,103588, Note_off_c,0,62,0,
2,103588, Note_on_c,0,62,50,
2,103588, Note_on_c,0,74,50,
2,103780, Note_off_c,0,74,0,
2,103780, Note_off_c,0,62,0,
2,103780, Note_on_c,0,62,50,
2,103780, Note_on_c,0,74,50,
2,103972, Note_off_c,0,74,0,
2,103972, Note_off_c,0,62,0,
2,103972, Note_on_c,0,74,50,
2,103972, Note_on_c,0,62,50,
2,104068, Note_off_c,0,74,0,
2,104068, Note_off_c,0,62,0,
2,104068, Note_on_c,0,74,50,
2,104068, Note_on_c,0,62,50,
2,104260, Note_off_c,0,74,0,
2,104260, Note_off_c,0,62,0,
2,104260, Note_on_c,0,74,50,
2,104260, Note_on_c,0,62,50,
2,104452, Note_off_c,0,74,0,
2,104452, Note_off_c,0,62,0,
2,104452, Note_on_c,0,86,50,
2,104452, Note_on_c,0,74,50,
2,104740, Note_off_c,0,74,0,
2,104740, Note_off_c,0,86,0,
2,104836, Note_on_c,0,86,50,
2,104836, Note_on_c,0,74,50,
2,105124, Note_off_c,0,86,0,
2,105124, Note_off_c,0,74,0,
2,105412, Note_on_c,0,71,50,
2,105412, Note_on_c,0,83,50,
2,105796, Note_off_c,0,83,0,
2,105796, Note_off_c,0,71,0,
2,105796, Note_on_c,0,81,50,
2,105796, Note_on_c,0,69,50,
2,105988, Note_off_c,0,69,0,
2,105988, Note_off_c,0,81,0,
2,105988, Note_on_c,0,76,50,
2,106084, Note_off_c,0,76,0,
2,106084, Note_on_c,0,74,50,
2,106180, Note_off_c,0,74,0,
2,106180, Note_on_c,0,71,50,
2,106372, Note_off_c,0,71,0,
2,106372, Note_on_c,0,69,50,
2,106564, Note_off_c,0,69,0,
2,106564, Note_on_c,0,71,50,
2,106660, Note_off_c,0,71,0,
2,107332, Note_on_c,0,71,50,
2,107332, Note_on_c,0,59,50,
2,107524, Note_off_c,0,71,0,
2,107524, Note_off_c,0,59,0,
2,107524, Note_on_c,0,62,50,
2,107524, Note_on_c,0,74,50,
2,107908, Note_off_c,0,74,0,
2,107908, Note_off_c,0,62,0,
2,107908, Note_on_c,0,64,50,
2,107908, Note_on_c,0,76,50,
2,108292, Note_off_c,0,76,0,
2,108292, Note_off_c,0,64,0,
2,108292, Note_on_c,0,78,50,
2,108292, Note_on_c,0,74,50,
2,108388, Note_off_c,0,74,0,
2,108388, Note_off_c,0,78,0,
2,108484, Note_on_c,0,78,50,
2,108484, Note_on_c,0,81,50,
2,108580, Note_off_c,0,81,0,
2,108580, Note_off_c,0,78,0,
2,108676, Note_on_c,0,78,50,
2,108676, Note_on_c,0,83,50,
2,108772, Note_off_c,0,83,0,
2,108772, Note_off_c,0,78,0,
2,108868, Note_on_c,0,86,50,
2,108868, Note_on_c,0,83,50,
2,108868, Note_on_c,0,74,50,
2,110500, Note_off_c,0,86,0,
2,110500, Note_off_c,0,83,0,
2,110500, Note_off_c,0,74,0,
2,110596, Note_on_c,0,76,50,
2,110980, Note_off_c,0,76,0,
2,111172, Note_on_c,0,73,50,
2,111268, Note_off_c,0,73,0,
2,111268, Note_on_c,0,74,50,
2,111364, Note_off_c,0,74,0,
2,111364, Note_on_c,0,76,50,
2,111748, Note_off_c,0,76,0,
2,111940, Note_on_c,0,73,50,
2,112036, Note_off_c,0,73,0,
2,112036, Note_on_c,0,74,50,
2,112132, Note_off_c,0,74,0,
2,112132, Note_on_c,0,76,50,
2,112324, Note_off_c,0,76,0,
2,112324, Note_on_c,0,74,50,
2,112516, Note_off_c,0,74,0,
2,112516, Note_on_c,0,73,50,
2,112612, Note_off_c,0,73,0,
2,112612, Note_on_c,0,74,50,
2,112804, Note_off_c,0,74,0,
2,112804, Note_on_c,0,73,50,
2,113188, Note_off_c,0,73,0,
2,113476, Note_on_c,0,73,50,
2,113572, Note_off_c,0,73,0,
2,113572, Note_on_c,0,74,50,
2,113668, Note_off_c,0,74,0,
2,113668, Note_on_c,0,73,50,
2,113860, Note_off_c,0,73,0,
2,113860, Note_on_c,0,71,50,
2,114052, Note_off_c,0,71,0,
2,114052, Note_on_c,0,69,50,
2,114244, Note_off_c,0,69,0,
2,114244, Note_on_c,0,71,50,
2,114436, Note_off_c,0,71,0,
2,114820, Note_on_c,0,69,50,
2,115012, Note_off_c,0,69,0,
2,115012, Note_on_c,0,64,50,
2,115204, Note_off_c,0,64,0,
2,115204, Note_on_c,0,62,50,
2,115588, Note_off_c,0,62,0,
2,115588, Note_on_c,0,61,50,
2,115684, Note_off_c,0,61,0,
2,115684, Note_on_c,0,62,50,
2,115876, Note_off_c,0,62,0,
2,115876, Note_on_c,0,61,50,
2,116260, Note_off_c,0,61,0,
2,116740, Note_on_c,0,74,50,
2,117124, Note_off_c,0,74,0,
2,117124, Note_on_c,0,74,50,
2,117316, Note_off_c,0,74,0,
2,117316, Note_on_c,0,71,50,
2,117508, Note_off_c,0,71,0,
2,117508, Note_on_c,0,74,50,
2,117892, Note_off_c,0,74,0,
2,117892, Note_on_c,0,74,50,
2,118084, Note_off_c,0,74,0,
2,118084, Note_on_c,0,71,50,
2,118276, Note_off_c,0,71,0,
2,118276, Note_on_c,0,74,50,
2,118660, Note_off_c,0,74,0,
2,118660, Note_on_c,0,74,50,
2,118852, Note_off_c,0,74,0,
2,118852, Note_on_c,0,71,50,
2,119044, Note_off_c,0,71,0,
2,119044, Note_on_c,0,78,50,
2,119428, Note_off_c,0,78,0,
2,119428, Note_on_c,0,76,50,
2,119812, Note_off_c,0,76,0,
2,119812, Note_on_c,0,71,50,
2,120196, Note_off_c,0,71,0,
2,121348, Note_on_c,0,71,50,
2,121348, Note_on_c,0,59,50,
2,121636, Note_off_c,0,71,0,
2,121636, Note_off_c,0,59,0,
2,121636, Note_on_c,0,59,50,
2,121636, Note_on_c,0,71,50,
2,121924, Note_off_c,0,71,0,
2,121924, Note_off_c,0,59,0,
2,121924, Note_on_c,0,59,50,
2,121924, Note_on_c,0,71,50,
2,122212, Note_off_c,0,71,0,
2,122212, Note_off_c,0,59,0,
2,122884, Note_on_c,0,74,50,
2,122884, Note_on_c,0,86,50,
2,123268, Note_off_c,0,74,0,
2,123268, Note_off_c,0,86,0,
2,123268, Note_on_c,0,74,50,
2,123268, Note_on_c,0,86,50,
2,123460, Note_off_c,0,86,0,
2,123460, Note_off_c,0,74,0,
2,123460, Note_on_c,0,71,50,
2,123460, Note_on_c,0,83,50,
2,123652, Note_off_c,0,83,0,
2,123652, Note_off_c,0,71,0,
2,123652, Note_on_c,0,86,50,
2,123652, Note_on_c,0,74,50,
2,124036, Note_off_c,0,74,0,
2,124036, Note_off_c,0,86,0,
2,124036, Note_on_c,0,74,50,
2,124036, Note_on_c,0,86,50,
2,124228, Note_off_c,0,86,0,
2,124228, Note_off_c,0,74,0,
2,124228, Note_on_c,0,71,50,
2,124228, Note_on_c,0,83,50,
2,124420, Note_off_c,0,83,0,
2,124420, Note_off_c,0,71,0,
2,124420, Note_on_c,0,74,50,
2,124420, Note_on_c,0,86,50,
2,124804, Note_off_c,0,74,0,
2,124804, Note_off_c,0,86,0,
2,124804, Note_on_c,0,74,50,
2,124804, Note_on_c,0,86,50,
2,124996, Note_off_c,0,86,0,
2,124996, Note_off_c,0,74,0,
2,124996, Note_on_c,0,71,50,
2,124996, Note_on_c,0,83,50,
2,125188, Note_off_c,0,83,0,
2,125188, Note_off_c,0,71,0,
2,125188, Note_on_c,0,90,50,
2,125188, Note_on_c,0,78,50,
2,125572, Note_off_c,0,90,0,
2,125572, Note_off_c,0,78,0,
2,125572, Note_on_c,0,76,50,
2,125572, Note_on_c,0,88,50,
2,125956, Note_off_c,0,88,0,
2,125956, Note_off_c,0,76,0,
2,125956, Note_on_c,0,71,50,
2,125956, Note_on_c,0,83,50,
2,126340, Note_off_c,0,83,0,
2,126340, Note_off_c,0,71,0,
2,127492, Note_on_c,0,83,50,
2,127492, Note_on_c,0,71,50,
2,127780, Note_off_c,0,71,0,
2,127780, Note_off_c,0,83,0,
2,127780, Note_on_c,0,83,50,
2,127780, Note_on_c,0,71,50,
2,128068, Note_off_c,0,83,0,
2,128068, Note_off_c,0,71,0,
2,128068, Note_on_c,0,71,50,
2,128068, Note_on_c,0,83,50,
2,128356, Note_off_c,0,83,0,
2,128356, Note_off_c,0,71,0,
2,129028, Note_on_c,0,86,50,
2,129028, Note_on_c,0,74,50,
2,129412, Note_off_c,0,86,0,
2,129412, Note_off_c,0,74,0,
2,129412, Note_on_c,0,74,50,
2,129412, Note_on_c,0,86,50,
2,129604, Note_off_c,0,86,0,
2,129604, Note_off_c,0,74,0,
2,129604, Note_on_c,0,71,50,
2,129604, Note_on_c,0,83,50,
2,129796, Note_off_c,0,83,0,
2,129796, Note_off_c,0,71,0,
2,129796, Note_on_c,0,86,50,
2,129796, Note_on_c,0,74,50,
2,130180, Note_off_c,0,74,0,
2,130180, Note_off_c,0,86,0,
2,130180, Note_on_c,0,74,50,
2,130180, Note_on_c,0,86,50,
2,130372, Note_off_c,0,74,0,
2,130372, Note_off_c,0,86,0,
2,130372, Note_on_c,0,71,50,
2,130372, Note_on_c,0,83,50,
2,130564, Note_off_c,0,83,0,
2,130564, Note_off_c,0,71,0,
2,130564, Note_on_c,0,86,50,
2,130564, Note_on_c,0,74,50,
2,130948, Note_off_c,0,74,0,
2,130948, Note_off_c,0,86,0,
2,130948, Note_on_c,0,74,50,
2,130948, Note_on_c,0,86,50,
2,131140, Note_off_c,0,86,0,
2,131140, Note_off_c,0,74,0,
2,131140, Note_on_c,0,71,50,
2,131140, Note_on_c,0,83,50,
2,131332, Note_off_c,0,83,0,
2,131332, Note_off_c,0,71,0,
2,131332, Note_on_c,0,78,50,
2,131332, Note_on_c,0,90,50,
2,131716, Note_off_c,0,90,0,
2,131716, Note_off_c,0,78,0,
2,131716, Note_on_c,0,76,50,
2,131716, Note_on_c,0,88,50,
2,132100, Note_off_c,0,76,0,
2,132100, Note_off_c,0,88,0,
2,132100, Note_on_c,0,71,50,
2,132100, Note_on_c,0,83,50,
2,132484, Note_off_c,0,83,0,
2,132484, Note_off_c,0,71,0,
2,133636, Note_on_c,0,71,50,
2,133636, Note_on_c,0,83,50,
2,133924, Note_off_c,0,83,0,
2,133924, Note_off_c,0,71,0,
2,133924, Note_on_c,0,83,50,
2,133924, Note_on_c,0,71,50,
2,134212, Note_off_c,0,71,0,
2,134212, Note_off_c,0,83,0,
2,134212, Note_on_c,0,71,50,
2,134212, Note_on_c,0,83,50,
2,134500, Note_off_c,0,83,0,
2,134500, Note_off_c,0,71,0,
2,135172, Note_on_c,0,78,50,
2,135172, Note_on_c,0,90,50,
2,135748, Note_off_c,0,90,0,
2,135748, Note_off_c,0,78,0,
2,135748, Note_on_c,0,76,50,
2,135748, Note_on_c,0,88,50,
2,136324, Note_off_c,0,76,0,
2,136324, Note_off_c,0,88,0,
2,136708, Note_on_c,0,76,50,
2,136708, Note_on_c,0,88,50,
2,137284, Note_off_c,0,88,0,
2,137284, Note_off_c,0,76,0,
2,137284, Note_on_c,0,74,50,
2,137284, Note_on_c,0,86,50,
2,137860, Note_off_c,0,86,0,
2,137860, Note_off_c,0,74,0,
2,138244, Note_on_c,0,93,50,
2,138244, Note_on_c,0,81,50,
2,138820, Note_off_c,0,93,0,
2,138820, Note_off_c,0,81,0,
2,138820, Note_on_c,0,80,50,
2,138820, Note_on_c,0,92,50,
2,139396, Note_off_c,0,92,0,
2,139396, Note_off_c,0,80,0,
2,141316, Note_on_c,0,83,50,
2,141316, Note_on_c,0,90,50,
2,141316, Note_on_c,0,86,50,
2,141316, Note_on_c,0,95,50,
2,142756, Note_off_c,0,90,0,
2,142756, Note_off_c,0,83,0,
2,142756, Note_off_c,0,86,0,
2,142756, Note_off_c,0,95,0,
2,142852, Note_on_c,0,76,50,
2,142852, Note_on_c,0,88,50,
2,142852, Note_on_c,0,83,50,
2,143620, Note_off_c,0,83,0,
2,143620, Note_off_c,0,88,0,
2,143620, Note_off_c,0,76,0,
2,143620, Note_on_c,0,86,50,
2,143620, Note_on_c,0,90,50,
2,143620, Note_on_c,0,78,50,
2,144388, Note_off_c,0,78,0,
2,144388, Note_off_c,0,86,0,
2,144388, Note_off_c,0,90,0,
2,144388, Note_on_c,0,83,50,
2,144388, Note_on_c,0,86,50,
2,144388, Note_on_c,0,90,50,
2,144388, Note_on_c,0,95,50,
2,145828, Note_off_c,0,95,0,
2,145828, Note_off_c,0,90,0,
2,145828, Note_off_c,0,86,0,
2,145828, Note_off_c,0,83,0,
2,145924, Note_on_c,0,82,50,
2,145975, Note_on_c,0,86,50,
2,146025, Note_on_c,0,89,50,
2,146078, Note_on_c,0,94,50,
2,147415, Note_off_c,0,86,0,
2,147422, Note_off_c,0,94,0,
2,147460, Note_off_c,0,82,0,
2,147460, Note_off_c,0,59,0,
2,147460, Note_on_c,0,59,50,
2,147465, Note_off_c,0,89,0,
2,147748, Note_on_c,0,61,50,
2,147940, Note_off_c,0,61,0,
2,148036, Note_on_c,0,62,50,
2,148228, Note_off_c,0,62,0,
2,148324, Note_on_c,0,66,50,
2,148612, Note_off_c,0,66,0,
2,148612, Note_on_c,0,65,50,
2,148804, Note_off_c,0,65,0,
2,148804, Note_on_c,0,66,50,
2,148996, Note_off_c,0,66,0,
2,148996, Note_on_c,0,71,50,
2,149188, Note_off_c,0,71,0,
2,149284, Note_on_c,0,73,50,
2,149476, Note_off_c,0,73,0,
2,149572, Note_on_c,0,74,50,
2,149764, Note_off_c,0,74,0,
2,149860, Note_on_c,0,76,50,
2,150148, Note_off_c,0,76,0,
2,150148, Note_on_c,0,78,50,
2,150244, Note_off_c,0,78,0,
2,150244, Note_on_c,0,76,50,
2,150340, Note_off_c,0,76,0,
2,150340, Note_on_c,0,78,50,
2,150532, Note_off_c,0,78,0,
2,150532, Note_on_c,0,71,50,
2,150532, Note_on_c,0,83,50,
2,150820, Note_off_c,0,83,0,
2,150820, Note_off_c,0,71,0,
2,150820, Note_on_c,0,85,50,
2,150820, Note_on_c,0,73,50,
2,151108, Note_off_c,0,73,0,
2,151108, Note_off_c,0,85,0,
2,151108, Note_on_c,0,74,50,
2,151108, Note_on_c,0,86,50,
2,151396, Note_off_c,0,86,0,
2,151396, Note_off_c,0,74,0,
2,151396, Note_on_c,0,78,50,
2,151396, Note_on_c,0,90,50,
2,151684, Note_off_c,0,90,0,
2,151684, Note_off_c,0,78,0,
2,151684, Note_on_c,0,90,50,
2,151684, Note_on_c,0,78,50,
2,151780, Note_off_c,0,90,0,
2,151780, Note_off_c,0,78,0,
2,151780, Note_on_c,0,77,50,
2,151780, Note_on_c,0,89,50,
2,151876, Note_off_c,0,89,0,
2,151876, Note_off_c,0,77,0,
2,151876, Note_on_c,0,78,50,
2,151876, Note_on_c,0,90,50,
2,152068, Note_off_c,0,90,0,
2,152068, Note_off_c,0,78,0,
2,152068, Note_on_c,0,90,50,
2,152068, Note_on_c,0,86,50,
2,152068, Note_on_c,0,78,50,
2,153508, Note_off_c,0,90,0,
2,153508, Note_off_c,0,86,0,
2,153508, Note_off_c,0,78,0,
2,153604, Note_off_c,0,66,0,
2,153604, Note_on_c,0,66,50,
2,153604, Note_on_c,0,73,50,
2,153604, Note_on_c,0,78,50,
2,154660, Note_off_c,0,78,0,
2,154660, Note_off_c,0,73,0,
2,154756, Note_on_c,0,59,50,
2,154852, Note_off_c,0,59,0,
2,154852, Note_on_c,0,61,50,
2,154948, Note_off_c,0,61,0,
2,154948, Note_on_c,0,62,50,
2,155044, Note_off_c,0,62,0,
2,155044, Note_on_c,0,64,50,
2,155140, Note_off_c,0,64,0,
2,155140, Note_on_c,0,66,50,
2,155140, Note_on_c,0,59,50,
2,156004, Note_off_c,0,59,0,
2,156004, Note_off_c,0,66,0,
2,156100, Note_on_c,0,59,50,
2,156292, Note_off_c,0,59,0,
2,156292, Note_on_c,0,62,50,
2,156484, Note_off_c,0,62,0,
2,156484, Note_on_c,0,69,50,
2,156676, Note_off_c,0,69,0,
2,156676, Note_on_c,0,59,50,
2,156676, Note_on_c,0,62,50,
2,156676, Note_on_c,0,68,50,
2,157540, Note_off_c,0,68,0,
2,157540, Note_off_c,0,62,0,
2,157540, Note_off_c,0,59,0,
2,157636, Note_on_c,0,66,50,
2,158020, Note_off_c,0,66,0,
2,158020, Note_on_c,0,64,50,
2,158212, Note_off_c,0,64,0,
2,158212, Note_on_c,0,66,50,
2,158212, Note_on_c,0,59,50,
2,158212, Note_on_c,0,54,50,
2,158212, Note_on_c,0,62,50,
2,159652, Note_off_c,0,62,0,
2,159652, Note_off_c,0,54,0,
2,159652, Note_off_c,0,66,0,
2,159652, Note_off_c,0,59,0,
2,159748, Note_on_c,0,59,50,
2,160036, Note_off_c,0,59,0,
2,160036, Note_on_c,0,59,50,
2,160324, Note_off_c,0,59,0,
2,160324, Note_on_c,0,59,50,
2,160612, Note_off_c,0,59,0,
2,160612, Note_on_c,0,59,50,
2,160900, Note_off_c,0,59,0,
2,160900, Note_on_c,0,59,50,
2,160996, Note_off_c,0,59,0,
2,160996, Note_on_c,0,61,50,
2,161092, Note_off_c,0,61,0,
2,161092, Note_on_c,0,62,50,
2,161188, Note_off_c,0,62,0,
2,161188, Note_on_c,0,64,50,
2,161284, Note_off_c,0,64,0,
2,161284, Note_on_c,0,59,50,
2,161284, Note_on_c,0,66,50,
2,162148, Note_off_c,0,59,0,
2,162148, Note_off_c,0,66,0,
2,162244, Note_on_c,0,59,50,
2,162436, Note_off_c,0,59,0,
2,162436, Note_on_c,0,62,50,
2,162628, Note_off_c,0,62,0,
2,162628, Note_on_c,0,69,50,
2,162820, Note_off_c,0,69,0,
2,162820, Note_on_c,0,64,50,
2,162820, Note_on_c,0,68,50,
2,163396, Note_off_c,0,68,0,
2,163396, Note_off_c,0,64,0,
2,163396, Note_on_c,0,69,50,
2,163396, Note_on_c,0,66,50,
2,163972, Note_off_c,0,69,0,
2,163972, Note_off_c,0,66,0,
2,163972, Note_on_c,0,68,50,
2,163972, Note_on_c,0,71,50,
2,164356, Note_off_c,0,71,0,
2,164356, Note_off_c,0,68,0,
2,164356, Note_on_c,0,59,50,
2,164356, Note_on_c,0,68,50,
2,164644, Note_off_c,0,68,0,
2,164644, Note_off_c,0,59,0,
2,164644, Note_on_c,0,66,50,
2,164644, Note_on_c,0,62,50,
2,165412, Note_off_c,0,66,0,
2,165412, Note_off_c,0,62,0,
2,165508, Note_on_c,0,73,50,
2,165700, Note_off_c,0,73,0,
2,165700, Note_on_c,0,74,50,
2,165796, Note_off_c,0,74,0,
2,165796, Note_on_c,0,76,50,
2,165892, Note_off_c,0,76,0,
2,165892, Note_on_c,0,73,50,
2,166084, Note_off_c,0,73,0,
2,166084, Note_on_c,0,69,50,
2,166180, Note_off_c,0,69,0,
2,166180, Note_on_c,0,71,50,
2,166948, Note_off_c,0,71,0,
2,167044, Note_on_c,0,59,50,
2,167140, Note_off_c,0,59,0,
2,167140, Note_on_c,0,61,50,
2,167236, Note_off_c,0,61,0,
2,167236, Note_on_c,0,62,50,
2,167332, Note_off_c,0,62,0,
2,167332, Note_on_c,0,64,50,
2,167428, Note_off_c,0,64,0,
2,167428, Note_on_c,0,74,50,
2,167428, Note_on_c,0,66,50,
2,167428, Note_on_c,0,78,50,
2,168292, Note_off_c,0,78,0,
2,168292, Note_off_c,0,66,0,
2,168292, Note_off_c,0,74,0,
2,168388, Note_on_c,0,71,50,
2,168388, Note_on_c,0,59,50,
2,168388, Note_on_c,0,66,50,
2,168580, Note_off_c,0,71,0,
2,168580, Note_off_c,0,66,0,
2,168580, Note_off_c,0,59,0,
2,168580, Note_on_c,0,74,50,
2,168580, Note_on_c,0,71,50,
2,168580, Note_on_c,0,62,50,
2,168772, Note_off_c,0,71,0,
2,168772, Note_off_c,0,62,0,
2,168772, Note_off_c,0,74,0,
2,168772, Note_on_c,0,69,50,
2,168772, Note_on_c,0,74,50,
2,168772, Note_on_c,0,81,50,
2,168964, Note_off_c,0,81,0,
2,168964, Note_off_c,0,74,0,
2,168964, Note_off_c,0,69,0,
2,168964, Note_on_c,0,68,50,
2,169004, Note_on_c,0,71,50,
2,169044, Note_on_c,0,80,50,
2,169868, Note_off_c,0,71,0,
2,169908, Note_off_c,0,80,0,
2,169923, Note_off_c,0,68,0,
2,169923, Note_on_c,0,78,50,
2,169923, Note_on_c,0,66,50,
2,170307, Note_off_c,0,78,0,
2,170307, Note_off_c,0,66,0,
2,170307, Note_on_c,0,64,50,
2,170307, Note_on_c,0,76,50,
2,170499, Note_off_c,0,76,0,
2,170499, Note_off_c,0,64,0,
2,170499, Note_on_c,0,71,50,
2,170499, Note_on_c,0,74,50,
2,170499, Note_on_c,0,78,50,
2,170499, Note_on_c,0,66,50,
2,171939, Note_off_c,0,66,0,
2,171939, Note_off_c,0,74,0,
2,171939, Note_off_c,0,71,0,
2,171939, Note_off_c,0,78,0,
2,172035, Note_on_c,0,59,50,
2,172323, Note_off_c,0,59,0,
2,172323, Note_on_c,0,59,50,
2,172611, Note_off_c,0,59,0,
2,172611, Note_on_c,0,59,50,
2,172899, Note_off_c,0,59,0,
2,172899, Note_on_c,0,59,50,
2,173187, Note_off_c,0,59,0,
2,173187, Note_on_c,0,59,50,
2,173283, Note_off_c,0,59,0,
2,173283, Note_on_c,0,61,50,
2,173379, Note_off_c,0,61,0,
2,173379, Note_on_c,0,62,50,
2,173475, Note_off_c,0,62,0,
2,173475, Note_on_c,0,64,50,
2,173571, Note_off_c,0,64,0,
2,173571, Note_on_c,0,78,50,
2,173571, Note_on_c,0,74,50,
2,173571, Note_on_c,0,66,50,
2,174435, Note_off_c,0,78,0,
2,174435, Note_off_c,0,66,0,
2,174435, Note_off_c,0,74,0,
2,174531, Note_on_c,0,59,50,
2,174531, Note_on_c,0,66,50,
2,174531, Note_on_c,0,71,50,
2,174723, Note_off_c,0,71,0,
2,174723, Note_off_c,0,66,0,
2,174723, Note_off_c,0,59,0,
2,174723, Note_on_c,0,71,50,
2,174723, Note_on_c,0,62,50,
2,174723, Note_on_c,0,74,50,
2,174915, Note_off_c,0,62,0,
2,174915, Note_off_c,0,74,0,
2,174915, Note_off_c,0,71,0,
2,174915, Note_on_c,0,69,50,
2,174915, Note_on_c,0,74,50,
2,174915, Note_on_c,0,81,50,
2,175107, Note_off_c,0,81,0,
2,175107, Note_off_c,0,74,0,
2,175107, Note_off_c,0,69,0,
2,175107, Note_on_c,0,74,50,
2,175107, Note_on_c,0,83,50,
2,175107, Note_on_c,0,71,50,
2,175683, Note_off_c,0,71,0,
2,175683, Note_off_c,0,74,0,
2,175683, Note_off_c,0,83,0,
2,175683, Note_on_c,0,69,50,
2,175683, Note_on_c,0,73,50,
2,175683, Note_on_c,0,81,50,
2,176259, Note_off_c,0,81,0,
2,176259, Note_off_c,0,73,0,
2,176259, Note_off_c,0,69,0,
2,176259, Note_on_c,0,68,50,
2,176259, Note_on_c,0,71,50,
2,176259, Note_on_c,0,78,50,
2,176643, Note_off_c,0,71,0,
2,176643, Note_off_c,0,78,0,
2,176643, Note_off_c,0,68,0,
2,176643, Note_on_c,0,66,50,
2,176694, Note_on_c,0,71,50,
2,176744, Note_on_c,0,74,50,
2,176797, Note_on_c,0,78,50,
2,178134, Note_off_c,0,71,0,
2,178141, Note_off_c,0,78,0,
2,178179, Note_off_c,0,66,0,
2,178184, Note_off_c,0,74,0,
2,178947, Note_on_c,0,71,50,
2,178947, Note_on_c,0,59,50,
2,179235, Note_off_c,0,59,0,
2,179235, Note_off_c,0,71,0,
2,179331, Note_on_c,0,74,50,
2,179427, Note_off_c,0,74,0,
2,179427, Note_on_c,0,73,50,
2,179523, Note_off_c,0,73,0,
2,179523, Note_on_c,0,71,50,
2,179715, Note_off_c,0,71,0,
2,179715, Note_on_c,0,69,50,
2,180003, Note_off_c,0,69,0,
2,180003, Note_on_c,0,71,50,
2,180291, Note_off_c,0,71,0,
2,180291, Note_on_c,0,71,50,
2,180579, Note_off_c,0,71,0,
2,180675, Note_on_c,0,66,50,
2,180867, Note_off_c,0,66,0,
2,180867, Note_on_c,0,69,50,
2,181059, Note_off_c,0,69,0,
2,181059, Note_on_c,0,71,50,
2,181251, Note_off_c,0,71,0,
2,181251, Note_on_c,0,73,50,
2,181539, Note_off_c,0,73,0,
2,181539, Note_on_c,0,69,50,
2,181827, Note_off_c,0,69,0,
2,181827, Note_on_c,0,71,50,
2,182115, Note_off_c,0,71,0,
2,182403, Note_on_c,0,74,50,
2,182499, Note_off_c,0,74,0,
2,182499, Note_on_c,0,73,50,
2,182595, Note_off_c,0,73,0,
2,182595, Note_on_c,0,71,50,
2,182787, Note_off_c,0,71,0,
2,182787, Note_on_c,0,69,50,
2,183075, Note_off_c,0,69,0,
2,183075, Note_on_c,0,71,50,
2,183267, Note_off_c,0,71,0,
2,183363, Note_on_c,0,71,50,
2,183555, Note_off_c,0,71,0,
2,183747, Note_on_c,0,66,50,
2,183939, Note_off_c,0,66,0,
2,183939, Note_on_c,0,73,50,
2,184131, Note_off_c,0,73,0,
2,184131, Note_on_c,0,74,50,
2,184323, Note_off_c,0,74,0,
2,184323, Note_on_c,0,73,50,
2,184611, Note_off_c,0,73,0,
2,184611, Note_on_c,0,69,50,
2,184899, Note_off_c,0,69,0,
2,184899, Note_on_c,0,64,50,
2,185187, Note_off_c,0,64,0,
2,185475, Note_on_c,0,74,50,
2,185571, Note_off_c,0,74,0,
2,185571, Note_on_c,0,73,50,
2,185667, Note_off_c,0,73,0,
2,185667, Note_on_c,0,71,50,
2,185859, Note_off_c,0,71,0,
2,185859, Note_on_c,0,69,50,
2,185859, Note_on_c,0,81,50,
2,186147, Note_off_c,0,81,0,
2,186147, Note_off_c,0,69,0,
2,186147, Note_on_c,0,83,50,
2,186147, Note_on_c,0,71,50,
2,186339, Note_off_c,0,83,0,
2,186339, Note_off_c,0,71,0,
2,186435, Note_on_c,0,83,50,
2,186435, Note_on_c,0,71,50,
2,186627, Note_off_c,0,71,0,
2,186627, Note_off_c,0,83,0,
2,186819, Note_on_c,0,66,50,
2,186819, Note_on_c,0,78,50,
2,187011, Note_off_c,0,78,0,
2,187011, Note_off_c,0,66,0,
2,187011, Note_on_c,0,81,50,
2,187011, Note_on_c,0,69,50,
2,187203, Note_off_c,0,81,0,
2,187203, Note_off_c,0,69,0,
2,187203, Note_on_c,0,71,50,
2,187203, Note_on_c,0,83,50,
2,187395, Note_off_c,0,83,0,
2,187395, Note_off_c,0,71,0,
2,187395, Note_on_c,0,73,50,
2,187395, Note_on_c,0,85,50,
2,187683, Note_off_c,0,85,0,
2,187683, Note_off_c,0,73,0,
2,187683, Note_on_c,0,81,50,
2,187683, Note_on_c,0,69,50,
2,187971, Note_off_c,0,81,0,
2,187971, Note_off_c,0,69,0,
2,187971, Note_on_c,0,71,50,
2,187971, Note_on_c,0,83,50,
2,188259, Note_off_c,0,83,0,
2,188259, Note_off_c,0,71,0,
2,188547, Note_on_c,0,74,50,
2,188547, Note_on_c,0,86,50,
2,188643, Note_off_c,0,86,0,
2,188643, Note_off_c,0,74,0,
2,188643, Note_on_c,0,85,50,
2,188643, Note_on_c,0,73,50,
2,188739, Note_off_c,0,85,0,
2,188739, Note_off_c,0,73,0,
2,188739, Note_on_c,0,71,50,
2,188739, Note_on_c,0,83,50,
2,188931, Note_off_c,0,83,0,
2,188931, Note_off_c,0,71,0,
2,188931, Note_on_c,0,71,50,
2,188931, Note_on_c,0,83,50,
2,189027, Note_off_c,0,83,0,
2,189027, Note_off_c,0,71,0,
2,189059, Note_on_c,0,86,50,
2,189059, Note_on_c,0,74,50,
2,189155, Note_off_c,0,74,0,
2,189155, Note_off_c,0,86,0,
2,189188, Note_on_c,0,78,50,
2,189188, Note_on_c,0,90,50,
2,189284, Note_off_c,0,90,0,
2,189284, Note_off_c,0,78,0,
2,189316, Note_on_c,0,88,50,
2,189316, Note_on_c,0,76,50,
2,189412, Note_off_c,0,76,0,
2,189412, Note_off_c,0,88,0,
2,189444, Note_on_c,0,86,50,
2,189444, Note_on_c,0,74,50,
2,189540, Note_off_c,0,86,0,
2,189540, Note_off_c,0,74,0,
2,189573, Note_on_c,0,71,50,
2,189573, Note_on_c,0,83,50,
2,189669, Note_off_c,0,83,0,
2,189669, Note_off_c,0,71,0,
2,189701, Note_on_c,0,81,50,
2,189701, Note_on_c,0,93,50,
2,189797, Note_off_c,0,93,0,
2,189797, Note_off_c,0,81,0,
2,189829, Note_on_c,0,80,50,
2,189829, Note_on_c,0,92,50,
2,189925, Note_off_c,0,80,0,
2,189925, Note_off_c,0,92,0,
2,189958, Note_on_c,0,90,50,
2,189958, Note_on_c,0,78,50,
2,190054, Note_off_c,0,90,0,
2,190054, Note_off_c,0,78,0,
2,190086, Note_on_c,0,74,50,
2,190086, Note_on_c,0,86,50,
2,190182, Note_off_c,0,86,0,
2,190182, Note_off_c,0,74,0,
2,190214, Note_on_c,0,85,50,
2,190214, Note_on_c,0,73,50,
2,190310, Note_off_c,0,73,0,
2,190310, Note_off_c,0,85,0,
2,190343, Note_on_c,0,71,50,
2,190343, Note_on_c,0,83,50,
2,190439, Note_off_c,0,83,0,
2,190439, Note_off_c,0,71,0,
2,190471, Note_on_c,0,69,50,
2,190567, Note_off_c,0,69,0,
2,190567, Note_on_c,0,71,50,
2,190759, Note_off_c,0,71,0,
2,190759, Note_on_c,0,69,50,
2,190855, Note_off_c,0,69,0,
2,190855, Note_on_c,0,71,50,
2,191047, Note_off_c,0,71,0,
2,191047, Note_on_c,0,69,50,
2,191143, Note_off_c,0,69,0,
2,191143, Note_on_c,0,71,50,
2,191335, Note_off_c,0,71,0,
2,191335, Note_on_c,0,69,50,
2,191431, Note_off_c,0,69,0,
2,191431, Note_on_c,0,71,50,
2,191623, Note_off_c,0,71,0,
2,191719, Note_on_c,0,69,50,
2,191815, Note_off_c,0,69,0,
2,191815, Note_on_c,0,71,50,
2,191911, Note_off_c,0,71,0,
2,191911, Note_on_c,0,74,50,
2,192007, Note_off_c,0,74,0,
2,192007, Note_on_c,0,47,50,
2,192007, Note_on_c,0,52,50,
2,192007, Note_on_c,0,55,50,
2,192007, Note_on_c,0,57,50,
2,192007, Note_on_c,0,66,50,
2,192007, Note_on_c,0,59,50,
2,192007, Note_on_c,0,50,50,
2,192007, Note_on_c,0,61,50,
2,192295, Note_off_c,0,57,0,
2,192295, Note_off_c,0,47,0,
2,192295, Note_off_c,0,55,0,
2,192295, Note_off_c,0,50,0,
2,192295, Note_off_c,0,59,0,
2,192295, Note_off_c,0,52,0,
2,192295, Note_off_c,0,66,0,
2,192295, Note_off_c,0,61,0,
2,193543, Note_on_c,0,52,50,
2,193543, Note_on_c,0,57,50,
2,193543, Note_on_c,0,59,50,
2,193543, Note_on_c,0,62,50,
2,193543, Note_on_c,0,48,50,
2,193543, Note_on_c,0,61,50,
2,193543, Note_on_c,0,66,50,
2,193543, Note_on_c,0,55,50,
2,193831, Note_off_c,0,48,0,
2,193831, Note_off_c,0,52,0,
2,193831, Note_off_c,0,59,0,
2,193831, Note_off_c,0,55,0,
2,193831, Note_off_c,0,57,0,
2,193831, Note_off_c,0,62,0,
2,193831, Note_off_c,0,61,0,
2,193831, Note_off_c,0,66,0,
2,193927, Note_on_c,0,62,50,
2,193927, Note_on_c,0,61,50,
2,193927, Note_on_c,0,66,50,
2,193927, Note_on_c,0,59,50,
2,193927, Note_on_c,0,55,50,
2,193927, Note_on_c,0,52,50,
2,193927, Note_on_c,0,57,50,
2,193927, Note_on_c,0,48,50,
2,194215, Note_off_c,0,62,0,
2,194215, Note_off_c,0,59,0,
2,194215, Note_off_c,0,61,0,
2,194215, Note_off_c,0,48,0,
2,194215, Note_off_c,0,66,0,
2,194215, Note_off_c,0,52,0,
2,194215, Note_off_c,0,55,0,
2,194215, Note_off_c,0,57,0,
2,194503, Note_on_c,0,55,50,
2,194503, Note_on_c,0,57,50,
2,194503, Note_on_c,0,52,50,
2,194503, Note_on_c,0,59,50,
2,194503, Note_on_c,0,62,50,
2,194503, Note_on_c,0,48,50,
2,194503, Note_on_c,0,61,50,
2,194503, Note_on_c,0,66,50,
2,194599, Note_off_c,0,48,0,
2,194599, Note_off_c,0,52,0,
2,194599, Note_off_c,0,55,0,
2,194599, Note_off_c,0,57,0,
2,194599, Note_off_c,0,62,0,
2,194599, Note_off_c,0,61,0,
2,194599, Note_off_c,0,66,0,
2,194599, Note_off_c,0,59,0,
2,194599, Note_on_c,0,62,50,
2,194599, Note_on_c,0,61,50,
2,194599, Note_on_c,0,52,50,
2,194599, Note_on_c,0,66,50,
2,194599, Note_on_c,0,59,50,
2,194599, Note_on_c,0,57,50,
2,194599, Note_on_c,0,48,50,
2,194599, Note_on_c,0,55,50,
2,194695, Note_off_c,0,62,0,
2,194695, Note_off_c,0,55,0,
2,194695, Note_off_c,0,48,0,
2,194695, Note_off_c,0,61,0,
2,194695, Note_off_c,0,52,0,
2,194695, Note_off_c,0,66,0,
2,194695, Note_off_c,0,57,0,
2,194695, Note_off_c,0,59,0,
2,194695, Note_on_c,0,59,50,
2,194695, Note_on_c,0,61,50,
2,194695, Note_on_c,0,50,50,
2,194695, Note_on_c,0,66,50,
2,194695, Note_on_c,0,53,50,
2,194695, Note_on_c,0,62,50,
2,194695, Note_on_c,0,55,50,
2,194791, Note_off_c,0,50,0,
2,194791, Note_off_c,0,55,0,
2,194791, Note_off_c,0,53,0,
2,194791, Note_off_c,0,59,0,
2,194791, Note_off_c,0,66,0,
2,194791, Note_off_c,0,62,0,
2,194791, Note_off_c,0,61,0,
2,194823, Note_on_c,0,66,50,
2,194823, Note_on_c,0,53,50,
2,194823, Note_on_c,0,55,50,
2,194823, Note_on_c,0,61,50,
2,194823, Note_on_c,0,59,50,
2,194823, Note_on_c,0,62,50,
2,194823, Note_on_c,0,50,50,
2,194919, Note_off_c,0,66,0,
2,194919, Note_off_c,0,55,0,
2,194919, Note_off_c,0,50,0,
2,194919, Note_off_c,0,53,0,
2,194919, Note_off_c,0,61,0,
2,194919, Note_off_c,0,62,0,
2,194919, Note_off_c,0,59,0,
2,194952, Note_on_c,0,62,50,
2,194952, Note_on_c,0,53,50,
2,194952, Note_on_c,0,66,50,
2,194952, Note_on_c,0,55,50,
2,194952, Note_on_c,0,59,50,
2,194952, Note_on_c,0,61,50,
2,194952, Note_on_c,0,50,50,
2,195048, Note_off_c,0,62,0,
2,195048, Note_off_c,0,50,0,
2,195048, Note_off_c,0,55,0,
2,195048, Note_off_c,0,53,0,
2,195048, Note_off_c,0,66,0,
2,195048, Note_off_c,0,59,0,
2,195048, Note_off_c,0,61,0,
2,195080, Note_on_c,0,71,50,
2,195080, Note_on_c,0,74,50,
2,195080, Note_on_c,0,78,50,
2,195464, Note_off_c,0,78,0,
2,195464, Note_off_c,0,74,0,
2,195464, Note_off_c,0,71,0,
2,195656, Note_on_c,0,71,50,
2,195656, Note_on_c,0,68,50,
2,195656, Note_on_c,0,74,50,
2,195656, Note_on_c,0,77,50,
2,196424, Note_off_c,0,68,0,
2,196424, Note_off_c,0,71,0,
2,196424, Note_off_c,0,74,0,
2,196424, Note_off_c,0,77,0,
2,196424, Note_on_c,0,74,50,
2,196520, Note_off_c,0,74,0,
2,196520, Note_on_c,0,76,50,
2,196616, Note_off_c,0,76,0,
2,196616, Note_on_c,0,71,50,
2,196616, Note_on_c,0,77,50,
2,196616, Note_on_c,0,68,50,
2,196904, Note_off_c,0,68,0,
2,196904, Note_off_c,0,71,0,
2,196904, Note_off_c,0,77,0,
2,196904, Note_on_c,0,76,50,
2,197192, Note_off_c,0,76,0,
2,197192, Note_on_c,0,74,50,
2,197384, Note_off_c,0,74,0,
2,197384, Note_on_c,0,64,50,
2,197384, Note_on_c,0,70,50,
2,197384, Note_on_c,0,73,50,
2,197672, Note_off_c,0,73,0,
2,197672, Note_off_c,0,70,0,
2,197672, Note_off_c,0,64,0,
2,197672, Note_on_c,0,74,50,
2,197960, Note_off_c,0,74,0,
2,197960, Note_on_c,0,76,50,
2,198152, Note_off_c,0,76,0,
2,198152, Note_on_c,0,71,50,
2,198152, Note_on_c,0,74,50,
2,198152, Note_on_c,0,78,50,
2,198536, Note_off_c,0,74,0,
2,198536, Note_off_c,0,71,0,
2,198536, Note_off_c,0,78,0,
2,198728, Note_on_c,0,80,50,
2,198728, Note_on_c,0,77,50,
2,198728, Note_on_c,0,83,50,
2,198728, Note_on_c,0,74,50,
2,199304, Note_off_c,0,77,0,
2,199304, Note_off_c,0,80,0,
2,199304, Note_off_c,0,74,0,
2,199304, Note_off_c,0,83,0,
2,199304, Note_on_c,0,71,50,
2,199496, Note_off_c,0,71,0,
2,199496, Note_on_c,0,73,50,
2,199688, Note_off_c,0,73,0,
2,199688, Note_on_c,0,71,50,
2,199688, Note_on_c,0,74,50,
2,199688, Note_on_c,0,68,50,
2,199976, Note_off_c,0,68,0,
2,199976, Note_off_c,0,71,0,
2,199976, Note_off_c,0,74,0,
2,199976, Note_on_c,0,76,50,
2,200264, Note_off_c,0,76,0,
2,200264, Note_on_c,0,74,50,
2,200456, Note_off_c,0,74,0,
2,200456, Note_on_c,0,73,50,
2,200456, Note_on_c,0,64,50,
2,200456, Note_on_c,0,70,50,
2,200744, Note_off_c,0,70,0,
2,200744, Note_off_c,0,64,0,
2,200744, Note_off_c,0,73,0,
2,200744, Note_on_c,0,81,50,
2,201032, Note_off_c,0,81,0,
2,201032, Note_on_c,0,79,50,
2,201224, Note_off_c,0,79,0,
2,201224, Note_on_c,0,71,50,
2,201224, Note_on_c,0,74,50,
2,201224, Note_on_c,0,78,50,
2,201608, Note_off_c,0,78,0,
2,201608, Note_off_c,0,74,0,
2,201608, Note_off_c,0,71,0,
2,201800, Note_on_c,0,74,50,
2,201800, Note_on_c,0,71,50,
2,201800, Note_on_c,0,77,50,
2,201800, Note_on_c,0,68,50,
2,202568, Note_off_c,0,74,0,
2,202568, Note_off_c,0,77,0,
2,202568, Note_off_c,0,71,0,
2,202568, Note_off_c,0,68,0,
2,202568, Note_on_c,0,74,50,
2,202664, Note_off_c,0,74,0,
2,202664, Note_on_c,0,76,50,
2,202760, Note_off_c,0,76,0,
2,202760, Note_on_c,0,71,50,
2,202760, Note_on_c,0,77,50,
2,202760, Note_on_c,0,68,50,
2,203048, Note_off_c,0,68,0,
2,203048, Note_off_c,0,71,0,
2,203048, Note_off_c,0,77,0,
2,203048, Note_on_c,0,76,50,
2,203336, Note_off_c,0,76,0,
2,203336, Note_on_c,0,74,50,
2,203528, Note_off_c,0,74,0,
2,203528, Note_on_c,0,73,50,
2,203528, Note_on_c,0,70,50,
2,203528, Note_on_c,0,64,50,
2,203816, Note_off_c,0,70,0,
2,203816, Note_off_c,0,64,0,
2,203816, Note_off_c,0,73,0,
2,203816, Note_on_c,0,74,50,
2,204104, Note_off_c,0,74,0,
2,204104, Note_on_c,0,76,50,
2,204296, Note_off_c,0,76,0,
2,204296, Note_on_c,0,78,50,
2,204296, Note_on_c,0,74,50,
2,204296, Note_on_c,0,71,50,
2,204680, Note_off_c,0,71,0,
2,204680, Note_off_c,0,78,0,
2,204680, Note_off_c,0,74,0,
2,204872, Note_on_c,0,74,50,
2,204872, Note_on_c,0,77,50,
2,204872, Note_on_c,0,80,50,
2,204872, Note_on_c,0,83,50,
2,205448, Note_off_c,0,83,0,
2,205448, Note_off_c,0,80,0,
2,205448, Note_off_c,0,77,0,
2,205448, Note_off_c,0,74,0,
2,205448, Note_on_c,0,83,50,
2,205640, Note_off_c,0,83,0,
2,205640, Note_on_c,0,85,50,
2,205832, Note_off_c,0,85,0,
2,205832, Note_on_c,0,86,50,
2,205832, Note_on_c,0,80,50,
2,205832, Note_on_c,0,83,50,
2,206120, Note_off_c,0,86,0,
2,206120, Note_off_c,0,83,0,
2,206120, Note_off_c,0,80,0,
2,206120, Note_on_c,0,79,50,
2,206408, Note_off_c,0,79,0,
2,206408, Note_on_c,0,78,50,
2,206600, Note_off_c,0,78,0,
2,206600, Note_on_c,0,64,50,
2,206600, Note_on_c,0,77,50,
2,206600, Note_on_c,0,70,50,
2,206888, Note_off_c,0,77,0,
2,206888, Note_off_c,0,70,0,
2,206888, Note_off_c,0,64,0,
2,206888, Note_on_c,0,74,50,
2,207176, Note_off_c,0,74,0,
2,207176, Note_on_c,0,76,50,
2,207368, Note_off_c,0,76,0,
2,207368, Note_on_c,0,74,50,
2,207368, Note_on_c,0,78,50,
2,207368, Note_on_c,0,71,50,
2,207752, Note_off_c,0,71,0,
2,207752, Note_off_c,0,74,0,
2,207752, Note_off_c,0,78,0,
2,207944, Note_on_c,0,74,50,
2,207944, Note_on_c,0,77,50,
2,207944, Note_on_c,0,68,50,
2,207944, Note_on_c,0,71,50,
2,208712, Note_off_c,0,71,0,
2,208712, Note_off_c,0,68,0,
2,208712, Note_off_c,0,77,0,
2,208712, Note_off_c,0,74,0,
2,208712, Note_on_c,0,74,50,
2,208808, Note_off_c,0,74,0,
2,208808, Note_on_c,0,76,50,
2,208904, Note_off_c,0,76,0,
2,208904, Note_on_c,0,68,50,
2,208904, Note_on_c,0,71,50,
2,208904, Note_on_c,0,77,50,
2,209192, Note_off_c,0,77,0,
2,209192, Note_off_c,0,71,0,
2,209192, Note_off_c,0,68,0,
2,209192, Note_on_c,0,76,50,
2,209480, Note_off_c,0,76,0,
2,209480, Note_on_c,0,74,50,
2,209672, Note_off_c,0,74,0,
2,209672, Note_on_c,0,73,50,
2,209672, Note_on_c,0,70,50,
2,209672, Note_on_c,0,64,50,
2,209960, Note_off_c,0,73,0,
2,209960, Note_off_c,0,64,0,
2,209960, Note_off_c,0,70,0,
2,209960, Note_on_c,0,74,50,
2,210248, Note_off_c,0,74,0,
2,210248, Note_on_c,0,76,50,
2,210440, Note_off_c,0,76,0,
2,210440, Note_on_c,0,78,50,
2,210440, Note_on_c,0,71,50,
2,210440, Note_on_c,0,74,50,
2,210824, Note_off_c,0,74,0,
2,210824, Note_off_c,0,78,0,
2,210824, Note_off_c,0,71,0,
2,210824, Note_on_c,0,78,50,
2,211016, Note_off_c,0,78,0,
2,211016, Note_on_c,0,74,50,
2,211016, Note_on_c,0,77,50,
2,211016, Note_on_c,0,80,50,
2,211016, Note_on_c,0,83,50,
2,211592, Note_off_c,0,83,0,
2,211592, Note_off_c,0,80,0,
2,211592, Note_off_c,0,77,0,
2,211592, Note_off_c,0,74,0,
2,211592, Note_on_c,0,71,50,
2,211784, Note_off_c,0,71,0,
2,211784, Note_on_c,0,73,50,
2,211976, Note_off_c,0,73,0,
2,211976, Note_on_c,0,71,50,
2,211976, Note_on_c,0,68,50,
2,211976, Note_on_c,0,74,50,
2,212264, Note_off_c,0,71,0,
2,212264, Note_off_c,0,74,0,
2,212264, Note_off_c,0,68,0,
2,212264, Note_on_c,0,76,50,
2,212552, Note_off_c,0,76,0,
2,212552, Note_on_c,0,74,50,
2,212744, Note_off_c,0,74,0,
2,212744, Note_on_c,0,70,50,
2,212744, Note_on_c,0,73,50,
2,212744, Note_on_c,0,64,50,
2,213032, Note_off_c,0,64,0,
2,213032, Note_off_c,0,73,0,
2,213032, Note_off_c,0,70,0,
2,213032, Note_on_c,0,81,50,
2,213320, Note_off_c,0,81,0,
2,213320, Note_on_c,0,79,50,
2,213512, Note_off_c,0,79,0,
2,213512, Note_on_c,0,71,50,
2,213512, Note_on_c,0,78,50,
2,213512, Note_on_c,0,74,50,
2,213896, Note_off_c,0,78,0,
2,213896, Note_off_c,0,74,0,
2,213896, Note_off_c,0,71,0,
2,214088, Note_on_c,0,68,50,
2,214088, Note_on_c,0,74,50,
2,214088, Note_on_c,0,77,50,
2,214088, Note_on_c,0,71,50,
2,214856, Note_off_c,0,71,0,
2,214856, Note_off_c,0,77,0,
2,214856, Note_off_c,0,74,0,
2,214856, Note_off_c,0,68,0,
2,214856, Note_on_c,0,74,50,
2,214952, Note_off_c,0,74,0,
2,214952, Note_on_c,0,76,50,
2,215048, Note_off_c,0,76,0,
2,215048, Note_on_c,0,68,50,
2,215048, Note_on_c,0,71,50,
2,215048, Note_on_c,0,77,50,
2,215336, Note_off_c,0,77,0,
2,215336, Note_off_c,0,71,0,
2,215336, Note_off_c,0,68,0,
2,215336, Note_on_c,0,76,50,
2,215624, Note_off_c,0,76,0,
2,215624, Note_on_c,0,74,50,
2,215816, Note_off_c,0,74,0,
2,215816, Note_on_c,0,64,50,
2,215816, Note_on_c,0,73,50,
2,215816, Note_on_c,0,70,50,
2,216104, Note_off_c,0,73,0,
2,216104, Note_off_c,0,64,0,
2,216104, Note_off_c,0,70,0,
2,216104, Note_on_c,0,74,50,
2,216392, Note_off_c,0,74,0,
2,216392, Note_on_c,0,76,50,
2,216584, Note_off_c,0,76,0,
2,216584, Note_on_c,0,74,50,
2,216584, Note_on_c,0,78,50,
2,216584, Note_on_c,0,71,50,
2,216968, Note_off_c,0,71,0,
2,216968, Note_off_c,0,78,0,
2,216968, Note_off_c,0,74,0,
2,216968, Note_on_c,0,78,50,
2,217160, Note_off_c,0,78,0,
2,217160, Note_on_c,0,83,50,
2,217160, Note_on_c,0,77,50,
2,217160, Note_on_c,0,74,50,
2,217160, Note_on_c,0,80,50,
2,217736, Note_off_c,0,83,0,
2,217736, Note_off_c,0,74,0,
2,217736, Note_off_c,0,77,0,
2,217736, Note_off_c,0,80,0,
2,217736, Note_on_c,0,83,50,
2,217928, Note_off_c,0,83,0,
2,217928, Note_on_c,0,85,50,
2,218120, Note_off_c,0,85,0,
2,218120, Note_on_c,0,80,50,
2,218120, Note_on_c,0,83,50,
2,218120, Note_on_c,0,86,50,
2,218408, Note_off_c,0,86,0,
2,218408, Note_off_c,0,83,0,
2,218408, Note_off_c,0,80,0,
2,218408, Note_on_c,0,79,50,
2,218696, Note_off_c,0,79,0,
2,218696, Note_on_c,0,78,50,
2,218888, Note_off_c,0,78,0,
2,218888, Note_on_c,0,77,50,
2,219176, Note_off_c,0,77,0,
2,219176, Note_on_c,0,86,50,
2,219464, Note_off_c,0,86,0,
2,219464, Note_on_c,0,82,50,
2,219656, Note_off_c,0,82,0,
2,219656, Note_on_c,0,83,50,
2,219656, Note_on_c,0,78,50,
2,219656, Note_on_c,0,74,50,
2,219656, Note_on_c,0,71,50,
2,219944, Note_off_c,0,78,0,
2,219944, Note_off_c,0,83,0,
2,219944, Note_off_c,0,74,0,
2,219944, Note_off_c,0,71,0,
2,222728, Note_on_c,0,71,50,
2,222728, Note_on_c,0,83,50,
2,222728, Note_on_c,0,74,50,
2,222728, Note_on_c,0,78,50,
2,223112, Note_off_c,0,78,0,
2,223112, Note_off_c,0,74,0,
2,223112, Note_off_c,0,83,0,
2,223112, Note_off_c,0,71,0,
2,224264, Note_on_c,0,83,50,
2,224264, Note_on_c,0,71,50,
2,224264, Note_on_c,0,74,50,
2,224264, Note_on_c,0,78,50,
2,224648, Note_off_c,0,83,0,
2,224648, Note_off_c,0,78,0,
2,224648, Note_off_c,0,74,0,
2,224648, Note_off_c,0,71,0,
2,225032, Note_on_c,0,74,50,
2,225032, Note_on_c,0,71,50,
2,225032, Note_on_c,0,78,50,
2,225032, Note_on_c,0,83,50,
2,225416, Note_off_c,0,71,0,
2,225416, Note_off_c,0,78,0,
2,225416, Note_off_c,0,74,0,
2,225416, Note_off_c,0,83,0,
2,225608, Note_on_c,0,68,50,
2,225704, Note_off_c,0,68,0,
2,225704, Note_on_c,0,69,50,
2,225800, Note_off_c,0,69,0,
2,225800, Note_on_c,0,71,50,
2,225896, Note_off_c,0,71,0,
2,225992, Note_on_c,0,71,50,
2,226088, Note_off_c,0,71,0,
2,226184, Note_on_c,0,71,50,
2,226280, Note_off_c,0,71,0,
2,226280, Note_on_c,0,69,50,
2,226376, Note_off_c,0,69,0,
2,226472, Note_on_c,0,71,50,
2,226568, Note_off_c,0,71,0,
2,226664, Note_on_c,0,74,50,
2,226760, Note_off_c,0,74,0,
2,226856, Note_on_c,0,71,50,
2,226952, Note_off_c,0,71,0,
2,227048, Note_on_c,0,66,50,
2,227144, Note_off_c,0,66,0,
2,227144, Note_on_c,0,69,50,
2,227336, Note_off_c,0,69,0,
2,227336, Note_on_c,0,83,50,
2,227336, Note_on_c,0,71,50,
2,227336, Note_on_c,0,74,50,
2,227336, Note_on_c,0,78,50,
2,227720, Note_off_c,0,78,0,
2,227720, Note_off_c,0,74,0,
2,227720, Note_off_c,0,71,0,
2,227720, Note_off_c,0,83,0,
2,227720, Note_on_c,0,71,50,
2,227816, Note_off_c,0,71,0,
2,227816, Note_on_c,0,69,50,
2,227912, Note_off_c,0,69,0,
2,228008, Note_on_c,0,71,50,
2,228104, Note_off_c,0,71,0,
2,228200, Note_off_c,0,76,0,
2,228200, Note_on_c,0,76,50,
2,228248, Note_off_c,0,77,0,
2,228248, Note_on_c,0,77,50,
2,228392, Note_on_c,0,76,50,
2,228488, Note_off_c,0,76,0,
2,228584, Note_on_c,0,74,50,
2,228680, Note_off_c,0,74,0,
2,228680, Note_on_c,0,69,50,
2,228872, Note_off_c,0,69,0,
2,228872, Note_on_c,0,74,50,
2,228872, Note_on_c,0,71,50,
2,228872, Note_on_c,0,83,50,
2,228872, Note_on_c,0,78,50,
2,229160, Note_off_c,0,78,0,
2,229160, Note_off_c,0,83,0,
2,229160, Note_off_c,0,71,0,
2,229160, Note_off_c,0,74,0,
2,229256, Note_on_c,0,71,50,
2,229352, Note_off_c,0,71,0,
2,229352, Note_on_c,0,69,50,
2,229448, Note_off_c,0,69,0,
2,229544, Note_on_c,0,71,50,
2,229640, Note_off_c,0,71,0,
2,229736, Note_on_c,0,74,50,
2,229832, Note_off_c,0,74,0,
2,229928, Note_on_c,0,71,50,
2,230024, Note_off_c,0,71,0,
2,230120, Note_on_c,0,66,50,
2,230216, Note_off_c,0,66,0,
2,230216, Note_on_c,0,69,50,
2,230408, Note_off_c,0,69,0,
2,230408, Note_on_c,0,83,50,
2,230408, Note_on_c,0,78,50,
2,230408, Note_on_c,0,71,50,
2,230408, Note_on_c,0,74,50,
2,230504, Note_off_c,0,83,0,
2,230504, Note_off_c,0,74,0,
2,230504, Note_off_c,0,71,0,
2,230504, Note_off_c,0,78,0,
2,230600, Note_on_c,0,74,50,
2,230600, Note_on_c,0,71,50,
2,230600, Note_on_c,0,78,50,
2,230600, Note_on_c,0,83,50,
2,230696, Note_off_c,0,71,0,
2,230696, Note_off_c,0,83,0,
2,230696, Note_off_c,0,74,0,
2,230696, Note_off_c,0,78,0,
2,230792, Note_on_c,0,71,50,
2,230792, Note_on_c,0,74,50,
2,230792, Note_on_c,0,78,50,
2,230792, Note_on_c,0,83,50,
2,230888, Note_off_c,0,83,0,
2,230888, Note_off_c,0,78,0,
2,230888, Note_off_c,0,74,0,
2,230888, Note_off_c,0,71,0,
2,230984, Note_on_c,0,81,50,
2,230984, Note_on_c,0,76,50,
2,230984, Note_on_c,0,73,50,
2,230984, Note_on_c,0,69,50,
2,231080, Note_off_c,0,69,0,
2,231080, Note_off_c,0,81,0,
2,231080, Note_off_c,0,73,0,
2,231080, Note_off_c,0,76,0,
2,231080, Note_on_c,0,71,50,
2,231080, Note_on_c,0,83,50,
2,231080, Note_on_c,0,74,50,
2,231080, Note_on_c,0,78,50,
2,231464, Note_off_c,0,78,0,
2,231464, Note_off_c,0,74,0,
2,231464, Note_off_c,0,83,0,
2,231464, Note_off_c,0,71,0,
2,231560, Note_on_c,0,83,50,
2,231611, Note_on_c,0,86,50,
2,231662, Note_on_c,0,90,50,
2,231714, Note_on_c,0,95,50,
2,231899, Note_off_c,0,86,0,
2,231906, Note_off_c,0,95,0,
2,231944, Note_off_c,0,83,0,
2,231944, Note_on_c,0,71,50,
2,231944, Note_on_c,0,83,50,
2,231950, Note_off_c,0,90,0,
2,232040, Note_off_c,0,83,0,
2,232040, Note_off_c,0,71,0,
2,232136, Note_on_c,0,83,50,
2,232136, Note_on_c,0,71,50,
2,232232, Note_off_c,0,83,0,
2,232232, Note_off_c,0,71,0,
2,232328, Note_on_c,0,83,50,
2,232328, Note_on_c,0,71,50,
2,232424, Note_off_c,0,71,0,
2,232424, Note_off_c,0,83,0,
2,232424, Note_on_c,0,81,50,
2,232424, Note_on_c,0,69,50,
2,232520, Note_off_c,0,69,0,
2,232520, Note_off_c,0,81,0,
2,232616, Note_on_c,0,71,50,
2,232616, Note_on_c,0,83,50,
2,232712, Note_off_c,0,83,0,
2,232712, Note_off_c,0,71,0,
2,232808, Note_on_c,0,74,50,
2,232808, Note_on_c,0,86,50,
2,232904, Note_off_c,0,86,0,
2,232904, Note_off_c,0,74,0,
2,233000, Note_on_c,0,71,50,
2,233000, Note_on_c,0,83,50,
2,233096, Note_off_c,0,71,0,
2,233096, Note_off_c,0,83,0,
2,233192, Note_on_c,0,66,50,
2,233192, Note_on_c,0,78,50,
2,233288, Note_off_c,0,66,0,
2,233288, Note_off_c,0,78,0,
2,233288, Note_on_c,0,69,50,
2,233288, Note_on_c,0,81,50,
2,233480, Note_off_c,0,81,0,
2,233480, Note_off_c,0,69,0,
2,233480, Note_on_c,0,83,50,
2,233480, Note_on_c,0,71,50,
2,233576, Note_off_c,0,83,0,
2,233576, Note_off_c,0,71,0,
2,233672, Note_on_c,0,71,50,
2,233672, Note_on_c,0,83,50,
2,233768, Note_off_c,0,83,0,
2,233768, Note_off_c,0,71,0,
2,233864, Note_on_c,0,71,50,
2,233864, Note_on_c,0,83,50,
2,233960, Note_off_c,0,83,0,
2,233960, Note_off_c,0,71,0,
2,233960, Note_on_c,0,81,50,
2,233960, Note_on_c,0,69,50,
2,234056, Note_off_c,0,69,0,
2,234056, Note_off_c,0,81,0,
2,234152, Note_on_c,0,83,50,
2,234152, Note_on_c,0,71,50,
2,234248, Note_off_c,0,83,0,
2,234248, Note_off_c,0,71,0,
2,234344, Note_on_c,0,89,50,
2,234344, Note_on_c,0,77,50,
2,234440, Note_off_c,0,77,0,
2,234440, Note_off_c,0,89,0,
2,234536, Note_on_c,0,88,50,
2,234536, Note_on_c,0,76,50,
2,234632, Note_off_c,0,76,0,
2,234632, Note_off_c,0,88,0,
2,234728, Note_on_c,0,74,50,
2,234728, Note_on_c,0,86,50,
2,234824, Note_off_c,0,86,0,
2,234824, Note_off_c,0,74,0,
2,234824, Note_on_c,0,69,50,
2,234824, Note_on_c,0,81,50,
2,235016, Note_off_c,0,81,0,
2,235016, Note_off_c,0,69,0,
2,235016, Note_on_c,0,71,50,
2,235016, Note_on_c,0,83,50,
2,235112, Note_off_c,0,83,0,
2,235112, Note_off_c,0,71,0,
2,235208, Note_on_c,0,83,50,
2,235208, Note_on_c,0,71,50,
2,235304, Note_off_c,0,83,0,
2,235304, Note_off_c,0,71,0,
2,235400, Note_on_c,0,71,50,
2,235400, Note_on_c,0,83,50,
2,235496, Note_off_c,0,83,0,
2,235496, Note_off_c,0,71,0,
2,235496, Note_on_c,0,69,50,
2,235496, Note_on_c,0,81,50,
2,235592, Note_off_c,0,81,0,
2,235592, Note_off_c,0,69,0,
2,235688, Note_on_c,0,83,50,
2,235688, Note_on_c,0,71,50,
2,235784, Note_off_c,0,71,0,
2,235784, Note_off_c,0,83,0,
2,235880, Note_on_c,0,74,50,
2,235880, Note_on_c,0,86,50,
2,235976, Note_off_c,0,86,0,
2,235976, Note_off_c,0,74,0,
2,236072, Note_on_c,0,71,50,
2,236072, Note_on_c,0,83,50,
2,236168, Note_off_c,0,83,0,
2,236168, Note_off_c,0,71,0,
2,236264, Note_on_c,0,78,50,
2,236264, Note_on_c,0,66,50,
2,236360, Note_off_c,0,78,0,
2,236360, Note_off_c,0,66,0,
2,236360, Note_on_c,0,81,50,
2,236360, Note_on_c,0,69,50,
2,236552, Note_off_c,0,69,0,
2,236552, Note_off_c,0,81,0,
2,236552, Note_on_c,0,83,50,
2,236552, Note_on_c,0,95,50,
2,236648, Note_off_c,0,95,0,
2,236648, Note_off_c,0,83,0,
2,236744, Note_on_c,0,95,50,
2,236744, Note_on_c,0,83,50,
2,236840, Note_off_c,0,95,0,
2,236840, Note_off_c,0,83,0,
2,236936, Note_on_c,0,83,50,
2,236936, Note_on_c,0,95,50,
2,237032, Note_off_c,0,95,0,
2,237032, Note_off_c,0,83,0,
2,237032, Note_on_c,0,81,50,
2,237032, Note_on_c,0,93,50,
2,237128, Note_off_c,0,93,0,
2,237128, Note_off_c,0,81,0,
2,237128, Note_on_c,0,95,50,
2,237128, Note_on_c,0,83,50,
2,237224, Note_off_c,0,95,0,
2,237224, Note_off_c,0,83,0,
2,237224, Note_on_c,0,86,50,
2,237224, Note_on_c,0,86,50,
2,237320, Note_off_c,0,86,0,
2,237320, Note_off_c,0,86,0,
2,237416, Note_on_c,0,89,50,
2,237416, Note_on_c,0,89,50,
2,237512, Note_off_c,0,89,0,
2,237512, Note_off_c,0,89,0,
2,237608, Note_on_c,0,88,50,
2,237608, Note_on_c,0,88,50,
2,237704, Note_off_c,0,88,0,
2,237704, Note_off_c,0,88,0,
2,237800, Note_on_c,0,86,50,
2,237800, Note_on_c,0,86,50,
2,237896, Note_off_c,0,86,0,
2,237896, Note_off_c,0,86,0,
2,237896, Note_on_c,0,81,50,
2,237896, Note_on_c,0,93,50,
2,238088, Note_off_c,0,93,0,
2,238088, Note_off_c,0,81,0,
2,238088, Note_on_c,0,83,50,
2,238088, Note_on_c,0,71,50,
2,238184, Note_off_c,0,71,0,
2,238184, Note_off_c,0,83,0,
2,238280, Note_on_c,0,71,50,
2,238280, Note_on_c,0,83,50,
2,238376, Note_off_c,0,83,0,
2,238376, Note_off_c,0,71,0,
2,238472, Note_on_c,0,83,50,
2,238472, Note_on_c,0,71,50,
2,238568, Note_off_c,0,71,0,
2,238568, Note_off_c,0,83,0,
2,238568, Note_on_c,0,81,50,
2,238568, Note_on_c,0,69,50,
2,238664, Note_off_c,0,81,0,
2,238664, Note_off_c,0,69,0,
2,238760, Note_on_c,0,71,50,
2,238760, Note_on_c,0,83,50,
2,238856, Note_off_c,0,83,0,
2,238856, Note_off_c,0,71,0,
2,238952, Note_on_c,0,74,50,
2,238952, Note_on_c,0,86,50,
2,239048, Note_off_c,0,86,0,
2,239048, Note_off_c,0,74,0,
2,239144, Note_on_c,0,71,50,
2,239144, Note_on_c,0,83,50,
2,239240, Note_off_c,0,71,0,
2,239240, Note_off_c,0,83,0,
2,239336, Note_on_c,0,78,50,
2,239336, Note_on_c,0,66,50,
2,239432, Note_off_c,0,78,0,
2,239432, Note_off_c,0,66,0,
2,239432, Note_on_c,0,69,50,
2,239432, Note_on_c,0,81,50,
2,239624, Note_off_c,0,81,0,
2,239624, Note_off_c,0,69,0,
2,239624, Note_on_c,0,83,50,
2,239624, Note_on_c,0,71,50,
2,239720, Note_off_c,0,71,0,
2,239720, Note_off_c,0,83,0,
2,239816, Note_on_c,0,71,50,
2,239816, Note_on_c,0,83,50,
2,239912, Note_off_c,0,83,0,
2,239912, Note_off_c,0,71,0,
2,240008, Note_on_c,0,71,50,
2,240008, Note_on_c,0,83,50,
2,240104, Note_off_c,0,83,0,
2,240104, Note_off_c,0,71,0,
2,240104, Note_on_c,0,69,50,
2,240104, Note_on_c,0,81,50,
2,240200, Note_off_c,0,81,0,
2,240200, Note_off_c,0,69,0,
2,240296, Note_on_c,0,83,50,
2,240296, Note_on_c,0,71,50,
2,240392, Note_off_c,0,83,0,
2,240392, Note_off_c,0,71,0,
2,240488, Note_on_c,0,89,50,
2,240488, Note_on_c,0,77,50,
2,240584, Note_off_c,0,77,0,
2,240584, Note_off_c,0,89,0,
2,240680, Note_on_c,0,76,50,
2,240680, Note_on_c,0,88,50,
2,240776, Note_off_c,0,88,0,
2,240776, Note_off_c,0,76,0,
2,240872, Note_on_c,0,86,50,
2,240872, Note_on_c,0,74,50,
2,240968, Note_off_c,0,86,0,
2,240968, Note_off_c,0,74,0,
2,240968, Note_on_c,0,69,50,
2,240968, Note_on_c,0,81,50,
2,241064, Note_off_c,0,81,0,
2,241064, Note_off_c,0,69,0,
2,241160, Note_on_c,0,71,50,
2,241160, Note_on_c,0,83,50,
2,241256, Note_off_c,0,83,0,
2,241256, Note_off_c,0,71,0,
2,241352, Note_on_c,0,83,50,
2,241352, Note_on_c,0,71,50,
2,241448, Note_off_c,0,83,0,
2,241448, Note_off_c,0,71,0,
2,241544, Note_on_c,0,71,50,
2,241544, Note_on_c,0,83,50,
2,241640, Note_off_c,0,83,0,
2,241640, Note_off_c,0,71,0,
2,241640, Note_on_c,0,69,50,
2,241640, Note_on_c,0,81,50,
2,241736, Note_off_c,0,81,0,
2,241736, Note_off_c,0,69,0,
2,241832, Note_on_c,0,71,50,
2,241832, Note_on_c,0,83,50,
2,241928, Note_off_c,0,83,0,
2,241928, Note_off_c,0,71,0,
2,242024, Note_on_c,0,86,50,
2,242024, Note_on_c,0,74,50,
2,242120, Note_off_c,0,86,0,
2,242120, Note_off_c,0,74,0,
2,242216, Note_on_c,0,71,50,
2,242216, Note_on_c,0,83,50,
2,242312, Note_off_c,0,83,0,
2,242312, Note_off_c,0,71,0,
2,242408, Note_on_c,0,66,50,
2,242408, Note_on_c,0,78,50,
2,242504, Note_off_c,0,78,0,
2,242504, Note_off_c,0,66,0,
2,242504, Note_on_c,0,81,50,
2,242504, Note_on_c,0,69,50,
2,242600, Note_off_c,0,69,0,
2,242600, Note_off_c,0,81,0,
2,242696, Note_on_c,0,83,50,
2,242696, Note_on_c,0,95,50,
2,242792, Note_off_c,0,95,0,
2,242792, Note_off_c,0,83,0,
2,242888, Note_on_c,0,95,50,
2,242888, Note_on_c,0,83,50,
2,242984, Note_off_c,0,83,0,
2,242984, Note_off_c,0,95,0,
2,243080, Note_on_c,0,83,50,
2,243080, Note_on_c,0,95,50,
2,243176, Note_off_c,0,95,0,
2,243176, Note_off_c,0,83,0,
2,243176, Note_on_c,0,93,50,
2,243176, Note_on_c,0,81,50,
2,243272, Note_off_c,0,93,0,
2,243272, Note_off_c,0,81,0,
2,243272, Note_on_c,0,83,50,
2,243272, Note_on_c,0,95,50,
2,243368, Note_off_c,0,95,0,
2,243368, Note_off_c,0,83,0,
2,243368, Note_on_c,0,86,50,
2,243368, Note_on_c,0,86,50,
2,243464, Note_off_c,0,86,0,
2,243464, Note_off_c,0,86,0,
2,243560, Note_on_c,0,89,50,
2,243560, Note_on_c,0,89,50,
2,243656, Note_off_c,0,89,0,
2,243656, Note_off_c,0,89,0,
2,243752, Note_on_c,0,88,50,
2,243752, Note_on_c,0,88,50,
2,243848, Note_off_c,0,88,0,
2,243848, Note_off_c,0,88,0,
2,243944, Note_on_c,0,86,50,
2,243944, Note_on_c,0,86,50,
2,244040, Note_off_c,0,86,0,
2,244040, Note_off_c,0,86,0,
2,244040, Note_on_c,0,93,50,
2,244040, Note_on_c,0,81,50,
2,244136, Note_off_c,0,81,0,
2,244136, Note_off_c,0,93,0,
2,245000, Note_off_c,0,73,0,
2,245000, Note_off_c,0,61,0,
2,245000, Note_on_c,0,61,50,
2,245000, Note_on_c,0,73,50,
2,245047, Note_off_c,0,74,0,
2,245047, Note_off_c,0,62,0,
2,245047, Note_on_c,0,62,50,
2,245047, Note_on_c,0,74,50,
2,245096, Note_off_c,0,73,0,
2,245096, Note_on_c,0,61,50,
2,245096, Note_on_c,0,73,50,
2,245143, Note_off_c,0,74,0,
2,245143, Note_off_c,0,62,0,
2,245143, Note_on_c,0,74,50,
2,245143, Note_on_c,0,62,50,
2,245192, Note_off_c,0,61,0,
2,245192, Note_off_c,0,73,0,
2,245192, Note_on_c,0,73,50,
2,245192, Note_on_c,0,61,50,
2,245239, Note_off_c,0,74,0,
2,245239, Note_off_c,0,62,0,
2,245239, Note_on_c,0,62,50,
2,245239, Note_on_c,0,74,50,
2,245288, Note_off_c,0,61,0,
2,245288, Note_off_c,0,73,0,
2,245288, Note_on_c,0,61,50,
2,245288, Note_on_c,0,73,50,
2,245335, Note_off_c,0,74,0,
2,245335, Note_off_c,0,62,0,
2,245335, Note_on_c,0,62,50,
2,245335, Note_on_c,0,74,50,
2,245384, Note_off_c,0,61,0,
2,245384, Note_off_c,0,73,0,
2,245384, Note_on_c,0,73,50,
2,245384, Note_on_c,0,61,50,
2,245431, Note_off_c,0,62,0,
2,245431, Note_off_c,0,74,0,
2,245431, Note_on_c,0,74,50,
2,245431, Note_on_c,0,62,50,
2,245480, Note_off_c,0,73,0,
2,245480, Note_off_c,0,61,0,
2,245480, Note_on_c,0,73,50,
2,245480, Note_on_c,0,61,50,
2,245527, Note_off_c,0,74,0,
2,245527, Note_off_c,0,62,0,
2,245527, Note_on_c,0,62,50,
2,245527, Note_on_c,0,74,50,
2,245576, Note_off_c,0,61,0,
2,245576, Note_off_c,0,73,0,
2,245576, Note_on_c,0,73,50,
2,245576, Note_on_c,0,61,50,
2,245623, Note_off_c,0,62,0,
2,245623, Note_off_c,0,74,0,
2,245623, Note_on_c,0,62,50,
2,245623, Note_on_c,0,74,50,
2,245672, Note_off_c,0,61,0,
2,245672, Note_off_c,0,73,0,
2,245672, Note_on_c,0,61,50,
2,245672, Note_on_c,0,73,50,
2,245719, Note_off_c,0,62,0,
2,245719, Note_off_c,0,74,0,
2,245719, Note_on_c,0,74,50,
2,245719, Note_on_c,0,62,50,
2,245768, Note_off_c,0,61,0,
2,245768, Note_off_c,0,73,0,
2,245768, Note_on_c,0,73,50,
2,245768, Note_on_c,0,61,50,
2,245815, Note_off_c,0,74,0,
2,245815, Note_off_c,0,62,0,
2,245815, Note_on_c,0,62,50,
2,245815, Note_on_c,0,74,50,
2,245864, Note_off_c,0,73,0,
2,245864, Note_off_c,0,61,0,
2,245864, Note_on_c,0,61,50,
2,245864, Note_on_c,0,73,50,
2,245911, Note_off_c,0,74,0,
2,245911, Note_off_c,0,62,0,
2,245911, Note_on_c,0,62,50,
2,245911, Note_on_c,0,74,50,
2,245960, Note_off_c,0,61,0,
2,245960, Note_off_c,0,73,0,
2,245960, Note_on_c,0,61,50,
2,245960, Note_on_c,0,73,50,
2,246007, Note_off_c,0,74,0,
2,246007, Note_off_c,0,62,0,
2,246007, Note_on_c,0,62,50,
2,246007, Note_on_c,0,74,50,
2,246056, Note_off_c,0,61,0,
2,246056, Note_off_c,0,73,0,
2,246056, Note_on_c,0,73,50,
2,246056, Note_on_c,0,61,50,
2,246103, Note_off_c,0,74,0,
2,246103, Note_off_c,0,62,0,
2,246103, Note_on_c,0,74,50,
2,246103, Note_on_c,0,62,50,
2,246152, Note_off_c,0,61,0,
2,246152, Note_off_c,0,73,0,
2,246152, Note_on_c,0,73,50,
2,246152, Note_on_c,0,61,50,
2,246199, Note_off_c,0,62,0,
2,246199, Note_off_c,0,74,0,
2,246199, Note_on_c,0,62,50,
2,246199, Note_on_c,0,74,50,
2,246248, Note_off_c,0,73,0,
2,246248, Note_off_c,0,61,0,
2,246248, Note_on_c,0,61,50,
2,246248, Note_on_c,0,73,50,
2,246295, Note_off_c,0,62,0,
2,246295, Note_off_c,0,74,0,
2,246295, Note_on_c,0,74,50,
2,246295, Note_on_c,0,62,50,
2,246344, Note_off_c,0,61,0,
2,246344, Note_off_c,0,73,0,
2,246344, Note_on_c,0,73,50,
2,246344, Note_on_c,0,61,50,
2,246391, Note_off_c,0,74,0,
2,246391, Note_off_c,0,62,0,
2,246391, Note_on_c,0,62,50,
2,246391, Note_on_c,0,74,50,
2,246440, Note_off_c,0,73,0,
2,246440, Note_off_c,0,61,0,
2,246440, Note_on_c,0,61,50,
2,246440, Note_on_c,0,73,50,
2,246487, Note_off_c,0,74,0,
2,246487, Note_off_c,0,62,0,
2,246487, Note_on_c,0,62,50,
2,246487, Note_on_c,0,74,50,
2,246536, Note_off_c,0,61,0,
2,246536, Note_off_c,0,73,0,
2,246536, Note_on_c,0,73,50,
2,246536, Note_on_c,0,61,50,
2,246583, Note_off_c,0,62,0,
2,246583, Note_off_c,0,74,0,
2,246583, Note_on_c,0,74,50,
2,246583, Note_on_c,0,62,50,
2,246632, Note_off_c,0,73,0,
2,246632, Note_off_c,0,61,0,
2,246632, Note_on_c,0,61,50,
2,246632, Note_on_c,0,73,50,
2,246679, Note_off_c,0,74,0,
2,246679, Note_off_c,0,62,0,
2,246679, Note_on_c,0,62,50,
2,246679, Note_on_c,0,74,50,
2,246728, Note_off_c,0,61,0,
2,246728, Note_off_c,0,73,0,
2,246728, Note_on_c,0,73,50,
2,246728, Note_on_c,0,61,50,
2,246775, Note_off_c,0,62,0,
2,246775, Note_off_c,0,74,0,
2,246775, Note_on_c,0,74,50,
2,246775, Note_on_c,0,62,50,
2,246824, Note_off_c,0,73,0,
2,246824, Note_off_c,0,61,0,
2,246824, Note_on_c,0,73,50,
2,246824, Note_on_c,0,61,50,
2,246871, Note_off_c,0,74,0,
2,246871, Note_off_c,0,62,0,
2,246871, Note_on_c,0,62,50,
2,246871, Note_on_c,0,74,50,
2,246920, Note_off_c,0,61,0,
2,246920, Note_off_c,0,73,0,
2,246920, Note_on_c,0,61,50,
2,246920, Note_on_c,0,73,50,
2,246967, Note_off_c,0,74,0,
2,246967, Note_off_c,0,62,0,
2,246967, Note_on_c,0,62,50,
2,246967, Note_on_c,0,74,50,
2,247016, Note_off_c,0,61,0,
2,247016, Note_off_c,0,73,0,
2,247016, Note_on_c,0,73,50,
2,247016, Note_on_c,0,61,50,
2,247063, Note_off_c,0,62,0,
2,247063, Note_off_c,0,74,0,
2,247063, Note_on_c,0,62,50,
2,247063, Note_on_c,0,74,50,
2,247112, Note_off_c,0,61,0,
2,247112, Note_off_c,0,73,0,
2,247112, Note_on_c,0,73,50,
2,247112, Note_on_c,0,61,50,
2,247159, Note_off_c,0,62,0,
2,247159, Note_off_c,0,74,0,
2,247159, Note_on_c,0,62,50,
2,247159, Note_on_c,0,74,50,
2,247208, Note_off_c,0,73,0,
2,247208, Note_off_c,0,61,0,
2,247208, Note_on_c,0,61,50,
2,247208, Note_on_c,0,73,50,
2,247255, Note_off_c,0,62,0,
2,247255, Note_off_c,0,74,0,
2,247255, Note_on_c,0,62,50,
2,247255, Note_on_c,0,74,50,
2,247304, Note_off_c,0,73,0,
2,247304, Note_off_c,0,61,0,
2,247304, Note_on_c,0,73,50,
2,247304, Note_on_c,0,61,50,
2,247351, Note_off_c,0,74,0,
2,247351, Note_off_c,0,62,0,
2,247351, Note_on_c,0,62,50,
2,247351, Note_on_c,0,74,50,
2,247400, Note_off_c,0,61,0,
2,247400, Note_off_c,0,73,0,
2,247400, Note_on_c,0,73,50,
2,247400, Note_on_c,0,61,50,
2,247447, Note_off_c,0,62,0,
2,247447, Note_off_c,0,74,0,
2,247447, Note_on_c,0,62,50,
2,247447, Note_on_c,0,74,50,
2,247496, Note_off_c,0,73,0,
2,247496, Note_off_c,0,61,0,
2,247496, Note_on_c,0,61,50,
2,247496, Note_on_c,0,73,50,
2,247543, Note_off_c,0,74,0,
2,247543, Note_off_c,0,62,0,
2,247543, Note_on_c,0,62,50,
2,247543, Note_on_c,0,74,50,
2,247592, Note_off_c,0,61,0,
2,247592, Note_off_c,0,73,0,
2,247592, Note_on_c,0,73,50,
2,247592, Note_on_c,0,61,50,
2,247639, Note_off_c,0,62,0,
2,247639, Note_off_c,0,74,0,
2,247639, Note_on_c,0,74,50,
2,247639, Note_on_c,0,62,50,
2,247688, Note_off_c,0,73,0,
2,247688, Note_off_c,0,61,0,
2,247688, Note_on_c,0,73,50,
2,247688, Note_on_c,0,61,50,
2,247735, Note_off_c,0,74,0,
2,247735, Note_off_c,0,62,0,
2,247735, Note_on_c,0,62,50,
2,247735, Note_on_c,0,74,50,
2,247784, Note_off_c,0,61,0,
2,247784, Note_off_c,0,73,0,
2,247784, Note_on_c,0,61,50,
2,247784, Note_on_c,0,73,50,
2,247831, Note_off_c,0,74,0,
2,247831, Note_off_c,0,62,0,
2,247831, Note_on_c,0,74,50,
2,247831, Note_on_c,0,62,50,
2,247880, Note_off_c,0,61,0,
2,247880, Note_off_c,0,73,0,
2,247880, Note_on_c,0,73,50,
2,247880, Note_on_c,0,61,50,
2,247927, Note_off_c,0,62,0,
2,247927, Note_off_c,0,74,0,
2,247927, Note_on_c,0,74,50,
2,247927, Note_on_c,0,62,50,
2,247976, Note_off_c,0,61,0,
2,247976, Note_off_c,0,73,0,
2,247976, Note_on_c,0,73,50,
2,247976, Note_on_c,0,61,50,
2,248023, Note_off_c,0,62,0,
2,248023, Note_off_c,0,74,0,
2,248023, Note_on_c,0,62,50,
2,248023, Note_on_c,0,74,50,
2,248072, Note_off_c,0,73,0,
2,248072, Note_off_c,0,61,0,
2,248072, Note_on_c,0,61,50,
2,248072, Note_on_c,0,73,50,
2,248119, Note_off_c,0,62,0,
2,248119, Note_off_c,0,74,0,
2,248119, Note_on_c,0,62,50,
2,248119, Note_on_c,0,74,50,
2,248168, Note_off_c,0,73,0,
2,248168, Note_off_c,0,61,0,
2,248168, Note_on_c,0,73,50,
2,248168, Note_on_c,0,61,50,
2,248215, Note_off_c,0,74,0,
2,248215, Note_off_c,0,62,0,
2,248215, Note_on_c,0,62,50,
2,248215, Note_on_c,0,74,50,
2,248264, Note_off_c,0,61,0,
2,248264, Note_off_c,0,73,0,
2,248264, Note_on_c,0,73,50,
2,248264, Note_on_c,0,61,50,
2,248311, Note_off_c,0,62,0,
2,248311, Note_off_c,0,74,0,
2,248311, Note_on_c,0,62,50,
2,248311, Note_on_c,0,74,50,
2,248360, Note_off_c,0,73,0,
2,248360, Note_off_c,0,61,0,
2,248360, Note_on_c,0,61,50,
2,248360, Note_on_c,0,73,50,
2,248407, Note_off_c,0,74,0,
2,248407, Note_off_c,0,62,0,
2,248407, Note_on_c,0,62,50,
2,248407, Note_on_c,0,74,50,
2,248456, Note_off_c,0,61,0,
2,248456, Note_off_c,0,73,0,
2,248456, Note_on_c,0,73,50,
2,248456, Note_on_c,0,61,50,
2,248503, Note_off_c,0,62,0,
2,248503, Note_off_c,0,74,0,
2,248503, Note_on_c,0,74,50,
2,248503, Note_on_c,0,62,50,
2,248552, Note_off_c,0,73,0,
2,248552, Note_off_c,0,61,0,
2,248552, Note_on_c,0,73,50,
2,248552, Note_on_c,0,61,50,
2,248599, Note_off_c,0,74,0,
2,248599, Note_off_c,0,62,0,
2,248599, Note_on_c,0,62,50,
2,248599, Note_on_c,0,74,50,
2,248648, Note_off_c,0,61,0,
2,248648, Note_off_c,0,61,0,
2,248648, Note_off_c,0,73,0,
2,248648, Note_on_c,0,61,50,
2,248648, Note_on_c,0,73,50,
2,248695, Note_off_c,0,74,0,
2,248695, Note_off_c,0,62,0,
2,248695, Note_on_c,0,62,50,
2,248695, Note_on_c,0,74,50,
2,248744, Note_off_c,0,73,0,
2,248744, Note_off_c,0,61,0,
2,248744, Note_on_c,0,61,50,
2,248744, Note_on_c,0,73,50,
2,248791, Note_on_c,0,62,50,
2,248791, Note_on_c,0,74,50,
2,248840, Note_on_c,0,71,50,
2,248887, Note_off_c,0,62,0,
2,248887, Note_off_c,0,74,0,
2,248891, Note_on_c,0,74,50,
2,248941, Note_on_c,0,78,50,
2,248994, Note_on_c,0,83,50,
2,249032, Note_off_c,0,71,0,
2,250338, Note_off_c,0,83,0,
2,250381, Note_off_c,0,78,0,
2,251771, Note_off_c,0,74,0,
2,251771, End_track,,,,
0,0, End_of_file,,,,
